<svg width="53" height="53" viewBox="0 0 53 53" fill="none" xmlns="http://www.w3.org/2000/svg">
<path d="M48.8594 46.7891C48.8594 47.9325 47.9325 48.8594 46.7891 48.8594H44.7188V50.9297C44.7188 52.0731 43.7919 53 42.6484 53C41.505 53 40.5781 52.0731 40.5781 50.9297V48.8594H38.5078C37.3644 48.8594 36.4375 47.9325 36.4375 46.7891C36.4375 45.6456 37.3644 44.7188 38.5078 44.7188H40.5781V42.6484C40.5781 41.505 41.505 40.5781 42.6484 40.5781C43.7919 40.5781 44.7188 41.505 44.7188 42.6484V44.7188H46.7891C47.9325 44.7188 48.8594 45.6456 48.8594 46.7891ZM48.8594 14.4922V34.3672C48.8594 35.5106 47.9325 36.4375 46.7891 36.4375C45.6456 36.4375 44.7188 35.5106 44.7188 34.3672V16.5625H40.5781V22.7734C40.5781 23.9169 39.6512 24.8438 38.5078 24.8438C37.3644 24.8438 36.4375 23.9169 36.4375 22.7734V16.5625H16.5625V22.7734C16.5625 23.9169 15.6356 24.8438 14.4922 24.8438C13.3488 24.8438 12.4219 23.9169 12.4219 22.7734V16.5625H8.28125V48.8594H30.2266C31.37 48.8594 32.2969 49.7863 32.2969 50.9297C32.2969 52.0731 31.37 53 30.2266 53H6.21094C5.0675 53 4.14062 52.0731 4.14062 50.9297V14.4922C4.14062 13.3488 5.0675 12.4219 6.21094 12.4219H12.5198C13.3422 5.43695 19.2977 0 26.5 0C33.7023 0 39.6578 5.43695 40.4802 12.4219H46.7891C47.9325 12.4219 48.8594 13.3488 48.8594 14.4922ZM36.2987 12.4219C35.5078 7.72796 31.4152 4.14062 26.5 4.14062C21.5848 4.14062 17.4922 7.72796 16.7013 12.4219H36.2987Z" fill="#6C6C80"/>
</svg>
