<svg width="62" height="62" viewBox="0 0 62 62" fill="none" xmlns="http://www.w3.org/2000/svg">
<path d="M29.0625 17.6902V27.125H14.5312C14.2743 27.125 14.0279 27.2271 13.8462 27.4087C13.6646 27.5904 13.5625 27.8368 13.5625 28.0938V31.74L11.7273 35.4105C11.66 35.545 11.625 35.6933 11.625 35.8438V55.2188C11.625 55.3692 11.66 55.5175 11.7273 55.652L13.6648 59.527C13.7453 59.6879 13.869 59.8232 14.022 59.9178C14.175 60.0124 14.3514 60.0625 14.5312 60.0625H30.0312C30.2111 60.0625 30.3875 60.0124 30.5405 59.9178C30.6935 59.8232 30.8172 59.6879 30.8977 59.527L30.9156 59.4907C31.7173 59.9827 32.6709 60.1657 33.5978 60.0055C34.5247 59.8452 35.3614 59.3527 35.9514 58.62C36.8401 59.4995 38.1988 60.0625 39.7188 60.0625C41.2387 60.0625 42.5974 59.4995 43.4861 58.6205C43.9892 59.2445 44.6735 59.697 45.4446 59.9156C46.2157 60.1343 47.0357 60.1084 47.7914 59.8415C48.5472 59.5746 49.2015 59.0798 49.6643 58.4253C50.127 57.7709 50.3753 56.989 50.375 56.1875C50.375 56.1673 50.375 56.1472 50.3731 56.127L49.4106 40.726L50.3652 34.0431C50.3713 33.9977 50.3742 33.952 50.3738 33.9062H50.375V17.6902C50.3766 16.6962 50.0707 15.7259 49.4994 14.9125L44.4856 7.75H44.5625C44.8194 7.75 45.0658 7.64794 45.2475 7.46626C45.4292 7.28458 45.5312 7.03818 45.5312 6.78125V4.84375C45.5304 4.07323 45.2239 3.33452 44.6791 2.78968C44.1342 2.24484 43.3955 1.93837 42.625 1.9375H36.8125C36.042 1.93837 35.3033 2.24484 34.7584 2.78968C34.2136 3.33452 33.9071 4.07323 33.9062 4.84375V6.78125C33.9062 7.03818 34.0083 7.28458 34.19 7.46626C34.3717 7.64794 34.6181 7.75 34.875 7.75H34.9519L29.9386 14.9125C29.3671 15.7259 29.0611 16.6961 29.0625 17.6902V17.6902ZM13.5625 54.25V36.8125H21.4202C22.3781 39.2863 23.25 41.9034 23.25 44.5625C23.25 48.8977 21.9239 51.4406 20.3359 54.25H13.5625ZM23.4933 36.8125H25.2952C26.2531 39.2863 27.125 41.9034 27.125 44.5625C27.125 48.8977 25.7989 51.4406 24.2109 54.25H22.554C23.9896 51.6223 25.1875 48.8698 25.1875 44.5625C25.1875 41.8399 24.4083 39.2547 23.4933 36.8125V36.8125ZM29.4326 58.125H15.1299L14.1612 56.1875H30.4013L29.4326 58.125ZM46.5 58.125C45.9863 58.1244 45.4939 57.9201 45.1307 57.5568C44.7674 57.1936 44.5631 56.7012 44.5625 56.1875C44.5625 55.9306 44.4604 55.6842 44.2788 55.5025C44.0971 55.3208 43.8507 55.2188 43.5938 55.2188C43.3368 55.2188 43.0904 55.3208 42.9087 55.5025C42.7271 55.6842 42.625 55.9306 42.625 56.1875C42.625 57.2377 41.2941 58.125 39.7188 58.125C38.1434 58.125 36.8125 57.2377 36.8125 56.1875C36.8125 55.9306 36.7104 55.6842 36.5288 55.5025C36.3471 55.3208 36.1007 55.2188 35.8438 55.2188C35.5868 55.2188 35.3404 55.3208 35.1587 55.5025C34.9771 55.6842 34.875 55.9306 34.875 56.1875C34.8751 56.546 34.7758 56.8975 34.588 57.2028C34.4002 57.5082 34.1313 57.7554 33.8113 57.917C33.4913 58.0786 33.1328 58.1482 32.7755 58.1181C32.4183 58.088 32.0765 57.9593 31.7881 57.7463L32.8352 55.6514C32.9024 55.5171 32.9374 55.369 32.9375 55.2188V35.8438C32.9375 35.6933 32.9025 35.545 32.8352 35.4105L32.5674 34.875H48.2893L47.4786 40.5505C47.4691 40.6159 47.4665 40.682 47.4707 40.7479L48.4375 56.2147C48.4297 56.7237 48.2223 57.2092 47.8598 57.5665C47.4974 57.9239 47.009 58.1245 46.5 58.125V58.125ZM35.8438 4.84375C35.844 4.58691 35.9462 4.34067 36.1278 4.15906C36.3094 3.97745 36.5557 3.87529 36.8125 3.875H42.625C42.8818 3.87529 43.1281 3.97745 43.3097 4.15906C43.4913 4.34067 43.5935 4.58691 43.5938 4.84375V5.8125H35.8438V4.84375ZM31 17.6902C30.9991 17.0938 31.1826 16.5117 31.5253 16.0236L37.3169 7.75H42.1206L47.9122 16.0236C48.2549 16.5117 48.4384 17.0938 48.4375 17.6902V19.375H31V17.6902ZM31 28.0938V21.3125H48.4375V32.9375H31.5987L31 31.74V28.0938ZM31 54.25H26.429C27.8646 51.6223 29.0625 48.8698 29.0625 44.5625C29.0625 41.8399 28.2833 39.2547 27.3683 36.8125H31V54.25ZM14.1612 34.875L15.1299 32.9375H24.2188C24.4757 32.9375 24.7221 32.8354 24.9038 32.6538C25.0854 32.4721 25.1875 32.2257 25.1875 31.9688C25.1875 31.7118 25.0854 31.4654 24.9038 31.2837C24.7221 31.1021 24.4757 31 24.2188 31H15.5V29.0625H29.0625V31H28.0938C27.8368 31 27.5904 31.1021 27.4087 31.2837C27.2271 31.4654 27.125 31.7118 27.125 31.9688C27.125 32.2257 27.2271 32.4721 27.4087 32.6538C27.5904 32.8354 27.8368 32.9375 28.0938 32.9375H29.4326L30.4013 34.875H14.1612Z" fill="black"/>
</svg>
