<svg width="57" height="57" viewBox="0 0 57 57" fill="none" xmlns="http://www.w3.org/2000/svg">
<path d="M56.1094 48.0938C56.1094 45.1797 54.525 42.5381 52.025 41.1274C52.3634 40.0853 52.5469 38.9881 52.5469 37.8614C52.5469 33.492 49.7975 29.5243 45.7051 27.9897L45.4219 27.8829V26.2236C45.9482 26.53 46.5512 26.7188 47.2031 26.7188H54.3281V19.5938H47.2031C46.5512 19.5938 45.9482 19.7826 45.4219 20.089V19.5938C45.4219 18.1679 44.7299 16.8356 43.5925 16.0028C43.3619 14.5101 42.0794 13.3594 40.5234 13.3594L29.632 13.3586C30.9065 12.2373 31.7766 10.6724 31.9984 8.90454H34.7317C36.2048 8.90454 37.4036 7.70576 37.4036 6.23267C37.4036 4.75957 36.2048 3.56079 34.7317 3.56079H30.4799C29.1323 1.88463 27.0999 0.888916 24.9348 0.888916C21.0063 0.888916 17.8098 4.08537 17.8098 8.01392C17.8098 10.6555 19.258 12.9604 21.399 14.1913C19.5385 15.1113 18.0877 16.7287 17.3868 18.7032H3.5625C2.08941 18.7032 0.890625 19.902 0.890625 21.3751V32.0626C0.890625 33.5357 2.08941 34.7344 3.5625 34.7344H6.33323C5.17453 35.8673 4.45312 37.4437 4.45312 39.1876V40.992C3.37814 41.8051 2.67188 43.0823 2.67188 44.5313C2.67188 46.3633 3.78605 47.9389 5.37047 48.6211C5.64389 52.7954 9.11733 56.1094 13.3594 56.1094C17.4785 56.1094 20.878 52.986 21.3225 48.9844H38.3494C38.7938 52.986 42.1934 56.1094 46.3125 56.1094C50.4316 56.1094 53.8312 52.986 54.2756 48.9844H56.1094V48.0938ZM54.2649 47.2032H47.5718L49.4582 45.3169C50.2197 44.5554 50.8476 43.6968 51.3365 42.7714C52.9236 43.7387 54.0004 45.3641 54.2649 47.2032ZM38.1927 43.9898L35.6606 33.2275C35.0016 30.4229 32.7394 28.3041 29.8956 27.8303L29.3906 27.7457L29.3888 19.5938H40.0781V47.2032H37.6699C38.0742 46.5789 38.296 45.8539 38.2951 45.0924V44.8787C38.2951 44.583 38.2604 44.2846 38.1927 43.9898ZM48.8205 48.9844C48.4518 50.0185 47.4721 50.7657 46.3125 50.7657C45.1529 50.7657 44.1732 50.0185 43.8045 48.9844H48.8205ZM50.7656 37.8614C50.7656 38.0066 50.7514 38.15 50.7443 38.2943C48.7893 38.28 47.2031 36.2904 47.2031 33.8438C47.2031 32.9309 47.424 32.0652 47.8319 31.3305C49.6541 32.9657 50.7656 35.3303 50.7656 37.8614ZM46.3855 30.2787C45.7621 31.318 45.4219 32.5497 45.4219 33.8438C45.4219 37.1676 47.6654 39.8849 50.478 40.0613C50.0914 41.5584 49.321 42.9353 48.1988 44.0575L45.0532 47.2032H41.8594V19.2812C42.4009 19.022 42.8533 18.615 43.1668 18.1083C43.4607 18.5438 43.6406 19.0532 43.6406 19.5938V29.1173L45.0799 29.657C45.5368 29.828 45.9714 30.0391 46.3855 30.2787ZM52.5469 24.9376H50.7656V21.3751H52.5469V24.9376ZM47.2031 21.3751H48.9844V24.9376H47.2031C46.2208 24.9376 45.4219 24.1387 45.4219 23.1563C45.4219 22.174 46.2208 21.3751 47.2031 21.3751ZM35.6232 6.23267C35.6232 6.7234 35.2242 7.12329 34.7326 7.12329H27.2674L27.4197 6.81959C27.8757 5.90848 28.7912 5.34204 29.8101 5.34204H34.7326C35.2242 5.34204 35.6232 5.74193 35.6232 6.23267ZM24.9357 2.67017C26.1603 2.67017 27.3279 3.09856 28.264 3.8449C27.222 4.22876 26.3438 4.98668 25.8263 6.02248L25.2759 7.12329H19.6721C20.0987 4.60015 22.2932 2.67017 24.9357 2.67017ZM19.6721 8.90454H30.1984C29.7727 11.4277 27.5782 13.3577 24.9348 13.3577C22.2915 13.3577 20.0987 11.4277 19.6721 8.90454ZM18.7013 21.3751C18.7013 17.9364 21.4988 15.1389 24.9375 15.1389L40.5234 15.1407C41.26 15.1407 41.8594 15.7401 41.8594 16.4766C41.8594 17.2132 41.26 17.8126 40.5234 17.8126H24.0469V19.5938H27.6076L27.6094 29.2544L29.6035 29.5875C31.7356 29.942 33.4323 31.5318 33.9266 33.6345L36.4577 44.3942C36.4951 44.5554 36.5138 44.7175 36.5138 44.8787V45.0933C36.5138 45.6571 36.2948 46.187 35.8966 46.5851C35.4976 46.9841 34.9686 47.2032 34.4048 47.2032C33.435 47.2032 32.5942 46.5459 32.3582 45.6054L30.039 36.326C29.542 34.3399 27.7661 32.9532 25.7186 32.9532L23.1536 32.9523C20.6981 32.9523 18.7013 30.9546 18.7013 28.4992V21.3751ZM31.1371 47.2032H27.6094V39.1876C27.6094 37.4446 26.888 35.8682 25.731 34.7353C26.9539 34.7407 28.0146 35.5707 28.3121 36.7571L30.6313 46.0365C30.7364 46.4604 30.9109 46.8523 31.1371 47.2032ZM8.01562 20.4844H11.5781V24.0469H8.01562V20.4844ZM3.5625 32.9532C3.07087 32.9532 2.67188 32.5542 2.67188 32.0626V21.3751C2.67188 20.8843 3.07087 20.4844 3.5625 20.4844H6.23438V25.8282H13.3594V20.4844H16.9726C16.9397 20.7775 16.9201 21.074 16.9201 21.3751V28.4992C16.9201 30.243 17.6424 31.8203 18.8002 32.9532H17.8125H10.6875H3.5625ZM13.3594 54.3282C10.2253 54.3282 7.63088 52.0001 7.19625 48.9844H8.9962C9.41034 51.0142 11.2085 52.5469 13.3594 52.5469C15.5102 52.5469 17.3084 51.0142 17.7225 48.9844H19.5225C19.0879 52.0001 16.4935 54.3282 13.3594 54.3282ZM10.8514 48.9844H15.8665C15.4978 50.0185 14.5181 50.7657 13.3585 50.7657C12.1989 50.7657 11.2201 50.0185 10.8514 48.9844ZM22.2656 47.2032H7.125C5.65191 47.2032 4.45312 46.0044 4.45312 44.5313C4.45312 43.0582 5.65191 41.8594 7.125 41.8594H19.5938C21.0668 41.8594 22.2656 43.0582 22.2656 44.5313V47.2032ZM19.5938 40.0782H7.125C6.82041 40.0782 6.52205 40.1094 6.23438 40.1682V39.1876C6.23438 36.7321 8.23205 34.7344 10.6875 34.7344H17.8125H21.375C23.8305 34.7344 25.8281 36.7321 25.8281 39.1876V47.2032H24.0469V44.5313C24.0469 42.0759 22.0492 40.0782 19.5938 40.0782ZM46.3125 54.3282C43.1784 54.3282 40.584 52.0001 40.1494 48.9844H41.9493C42.3635 51.0142 44.1616 52.5469 46.3125 52.5469C48.4634 52.5469 50.2615 51.0142 50.6757 48.9844H52.4756C52.041 52.0001 49.4466 54.3282 46.3125 54.3282Z" fill="#6C6C80"/>
<path d="M9.79688 43.6406H11.5781V45.4219H9.79688V43.6406Z" fill="#6C6C80"/>
<path d="M6.23438 43.6406H8.01562V45.4219H6.23438V43.6406Z" fill="#6C6C80"/>
<path d="M13.3594 43.6406H15.1406V45.4219H13.3594V43.6406Z" fill="#6C6C80"/>
</svg>
