<svg width="54" height="54" viewBox="0 0 54 54" fill="none" xmlns="http://www.w3.org/2000/svg">
<g clip-path="url(#clip0)">
<path d="M40.1404 21.6675L43.3131 21.466C43.3185 21.4656 43.3243 21.4652 43.33 21.4648C45.591 21.2737 47.6205 20.0869 48.8985 18.2079L51.4066 14.5208C53.5898 11.3109 54.4356 7.43394 53.7875 3.60446C53.6602 2.85235 53.2762 2.15927 52.7069 1.6536C52.1371 1.14751 51.4046 0.848649 50.6441 0.812323C46.7705 0.626566 43.0317 1.93306 40.1132 4.48949L36.7605 7.42651C35.0519 8.92289 34.1192 11.0839 34.2008 13.3563C34.2012 13.3617 34.2012 13.3674 34.2016 13.3732L34.3825 16.553C34.4529 17.7926 33.9993 19.0157 33.1403 19.9065L6.94693 46.8677C6.24573 47.6004 5.88359 48.6056 5.92767 49.6982C5.97629 50.9011 6.52711 52.0825 7.40135 52.859C8.19113 53.5603 9.27672 53.9599 10.3619 53.9599C10.4781 53.9599 10.5943 53.9554 10.71 53.9459C11.7981 53.8588 12.751 53.3783 13.3962 52.5882L36.9648 23.3071C37.7464 22.3436 38.904 21.7459 40.1404 21.6675ZM35.7066 22.2867L12.14 51.5653C11.78 52.0061 11.2263 52.2778 10.5811 52.3294C9.81354 52.3909 9.02665 52.1349 8.47541 51.6454C7.92417 51.1554 7.57645 50.4033 7.54555 49.6326C7.51918 48.9849 7.72147 48.4016 8.11121 47.9946L34.3025 21.0355C35.4767 19.8182 36.0947 18.1509 35.9991 16.4609L35.8182 13.2894C35.7569 11.5107 36.4881 9.81948 37.8259 8.64756L41.1786 5.71053C43.7807 3.4315 47.1154 2.26783 50.567 2.43212C50.9601 2.45111 51.3383 2.6055 51.6328 2.86721C51.9274 3.12851 52.1256 3.48681 52.1915 3.87525C52.7691 7.28947 52.0152 10.7454 50.0689 13.6069L47.5607 17.2943C46.56 18.7655 44.9718 19.6956 43.2019 19.8479L40.0378 20.0485C38.352 20.1558 36.7741 20.9707 35.7066 22.2867Z" fill="#6C6C80"/>
<path d="M52.5046 46.6629L34.9419 30.6354C34.6115 30.3336 34.0998 30.3576 33.7983 30.6886C33.4975 31.0197 33.5214 31.5328 33.8518 31.8346L51.4099 47.8584C51.8277 48.2452 52.0646 48.8152 52.0774 49.4633C52.0926 50.2344 51.7906 51.0059 51.2694 51.5281C50.7487 52.0499 49.9799 52.3533 49.2087 52.3376C48.5619 52.3248 47.9929 52.0874 47.611 51.6734L31.9612 34.4583C31.66 34.1268 31.1479 34.1033 30.8175 34.4046C30.4871 34.7064 30.4632 35.2195 30.7644 35.5505L46.4179 52.7698C47.1059 53.5153 48.0856 53.938 49.177 53.9595C49.2054 53.9599 49.2334 53.9603 49.2618 53.9603C50.4348 53.9603 51.6077 53.4835 52.4139 52.6753C53.2404 51.8472 53.7195 50.6348 53.6956 49.4315C53.6742 48.338 53.2528 47.3564 52.5046 46.6629Z" fill="#6C6C80"/>
<path d="M9.76748 21.514C11.1073 22.7507 12.8479 23.4558 14.6689 23.4995C14.6747 23.5 14.6804 23.5 14.6858 23.5L17.8647 23.5099C19.104 23.5136 20.295 24.0407 21.1309 24.9534L22.5313 26.4935C22.6911 26.6694 22.9099 26.7586 23.1299 26.7586C23.3244 26.7586 23.5197 26.6888 23.6746 26.5472C24.0054 26.2455 24.0293 25.7323 23.7281 25.4013L22.3257 23.8591C21.1837 22.6116 19.5596 21.8934 17.8701 21.8876L14.6998 21.8777C13.2912 21.8418 11.9444 21.3014 10.9009 20.3549L1.68839 9.38201C1.59445 9.26973 1.60146 9.10709 1.70487 9.00348C1.77573 8.93206 1.85895 8.92174 1.90221 8.92174C1.94547 8.92174 2.02869 8.93206 2.09996 9.00348L10.4856 17.4059C11.3145 18.2364 12.6633 18.2364 13.4923 17.4055L14.4777 16.4185V16.4181L16.2275 14.6649C16.2275 14.6649 16.2279 14.6649 16.2279 14.6645L16.2283 14.6641L17.2133 13.6771C18.0423 12.8466 18.0423 11.4951 17.2133 10.6646L8.82773 2.26256C8.71897 2.15358 8.71897 1.97567 8.82773 1.86669C8.93114 1.76308 9.09347 1.75606 9.20553 1.85018L20.157 11.0811C21.1021 12.1263 21.6414 13.4761 21.6772 14.887L21.6867 18.0639C21.6925 19.7563 22.4098 21.3836 23.6564 22.5303L25.1569 23.8995C25.4877 24.2013 25.9994 24.1774 26.3006 23.8463C26.6013 23.5148 26.5774 23.0021 26.247 22.7004L24.749 21.3332C23.8356 20.4936 23.3099 19.2998 23.3058 18.0585L23.2959 14.8734C23.2959 14.8676 23.2959 14.8618 23.2955 14.8561C23.2519 13.0315 22.5482 11.2875 21.3139 9.94506C21.2908 9.91988 21.2661 9.89594 21.2397 9.87365L10.2474 0.608906C9.48774 -0.03175 8.38526 0.0161341 7.68323 0.719534C6.94289 1.46132 6.94289 2.66792 7.68323 3.4093L16.0688 11.8117C16.2666 12.0099 16.2666 12.3322 16.0688 12.5304L15.6556 12.944L6.30966 3.58019C5.99367 3.26317 5.48115 3.26317 5.16516 3.58019C4.84916 3.89681 4.84916 4.41032 5.16516 4.72693L14.5111 14.0912L13.9055 14.6976L4.55953 5.33374C4.24354 5.01713 3.73103 5.01713 3.41503 5.33374C3.09862 5.65035 3.09862 6.16387 3.41503 6.48048L12.7606 15.8447L12.3478 16.2587C12.15 16.4569 11.8282 16.4569 11.6305 16.2587L3.24447 7.85674C2.88604 7.49761 2.40937 7.29946 1.90221 7.29946C1.39505 7.29946 0.918382 7.49761 0.559952 7.85674C-0.142077 8.56014 -0.189455 9.66477 0.449539 10.4264L9.69662 21.4397C9.71845 21.4661 9.74235 21.4909 9.76748 21.514Z" fill="#6C6C80"/>
</g>
<defs>
<clipPath id="clip0">
<rect width="54" height="54" fill="white"/>
</clipPath>
</defs>
</svg>
