<svg width="62" height="62" viewBox="0 0 62 62" fill="none" xmlns="http://www.w3.org/2000/svg">
<path d="M46.3875 18.0343C45.9147 17.5615 45.1479 17.5615 44.6749 18.0343L42.253 20.4561C41.7802 20.929 41.7802 21.6958 42.253 22.1688C42.7261 22.6418 43.4928 22.6416 43.9657 22.1688L46.3875 19.7469C46.8604 19.274 46.8604 18.5072 46.3875 18.0343Z" fill="black"/>
<path d="M17.325 18.0343C16.8521 17.5615 16.0853 17.5615 15.6123 18.0343L13.1905 20.4561C12.7176 20.929 12.7176 21.6958 13.1905 22.1688C13.6636 22.6418 14.4302 22.6416 14.9031 22.1688L17.325 19.7469C17.7978 19.274 17.7978 18.5072 17.325 18.0343Z" fill="black"/>
<path d="M40.3329 13.1905C39.86 12.7177 39.0932 12.7177 38.6202 13.1905L36.1983 15.6124C35.7255 16.0852 35.7255 16.852 36.1983 17.325C36.6715 17.798 37.4381 17.7979 37.911 17.325L40.3329 14.9031C40.8057 14.4303 40.8057 13.6635 40.3329 13.1905Z" fill="black"/>
<path d="M25.8015 13.1905C25.3287 12.7177 24.5619 12.7177 24.0889 13.1905L21.667 15.6124C21.1942 16.0852 21.1942 16.852 21.667 17.325C22.1401 17.798 22.9068 17.7979 23.3797 17.325L25.8015 14.9031C26.2744 14.4303 26.2744 13.6635 25.8015 13.1905Z" fill="black"/>
<path d="M31.8562 18.0343C31.3834 17.5615 30.6166 17.5615 30.1436 18.0343L27.7217 20.4561C27.2488 20.929 27.2488 21.6958 27.7217 22.1688C28.1948 22.6418 28.9615 22.6416 29.4343 22.1688L31.8562 19.7469C32.3291 19.274 32.3291 18.5072 31.8562 18.0343Z" fill="black"/>
<path d="M62 43.1094C62 41.1062 60.3703 39.4766 58.3672 39.4766H57.1562V35.5737C57.2061 35.5304 57.257 35.4888 57.306 35.4441C58.0921 34.7276 59.7339 34.2695 60.8043 34.256C61.473 34.2476 62.0084 33.6986 61.9999 33.0299C61.9915 32.3664 61.4511 31.8342 60.7893 31.8342C60.7842 31.8342 60.7789 31.8342 60.7738 31.8343C59.7347 31.8474 58.3541 32.1233 57.1562 32.6896V29.5154C58.6307 28.912 59.6109 27.3939 59.4005 25.7088C57.9721 14.228 48.1573 5.57031 36.5703 5.57031H25.4297C13.8427 5.57031 4.02794 14.228 2.59952 25.7083C2.38966 27.3885 3.36326 28.9097 4.84375 29.5155V32.6362C3.64141 32.0915 2.25755 31.8191 1.19507 31.8343C0.526395 31.8431 -0.00859766 32.3923 0.000121094 33.0611C0.00883984 33.7245 0.549281 34.2561 1.2107 34.2561C1.21602 34.2561 1.22147 34.2561 1.22692 34.256C2.30974 34.2394 3.99052 34.6918 4.81033 35.4395C4.82123 35.4496 4.83285 35.459 4.84387 35.469V39.4766H3.63281C1.6258 39.4766 0 41.1021 0 43.1094C0 44.9094 1.31629 46.4071 3.03679 46.6924C2.75379 47.4394 2.73345 48.2556 2.99586 49.0311C4.4967 53.4564 8.64573 56.4297 13.3203 56.4297H48.6797C53.3543 56.4297 57.5033 53.4564 59.0045 49.0304C59.2667 48.2556 59.2463 47.4398 58.9635 46.6929C60.6515 46.4154 62 44.9464 62 43.1094ZM5.00275 26.0078C6.28077 15.7372 15.0624 7.99219 25.4297 7.99219H36.5703C46.9376 7.99219 55.7192 15.7372 56.9973 26.0084C57.0847 26.7082 56.5387 27.3175 55.8643 27.3627C55.8563 27.3632 55.8483 27.3639 55.8403 27.3646C55.8196 27.3665 55.7989 27.3672 55.7782 27.3672H6.2218C5.50855 27.3672 4.91156 26.7392 5.00275 26.0078ZM50.0405 33.6544C47.3795 31.2278 43.804 31.2278 41.1429 33.6544C39.4054 35.2388 37.2467 35.2388 35.5093 33.6544C32.8483 31.2278 29.2727 31.2278 26.6117 33.6544C24.8741 35.2388 22.7155 35.2388 20.978 33.6544C18.317 31.2279 14.7415 31.2277 12.0802 33.6546C10.6076 34.9985 8.84336 35.2118 7.26562 34.2665V29.7891H54.7344V34.3367C53.1893 35.1964 51.4705 34.9584 50.0405 33.6544ZM54.7344 36.963V39.4766H7.26562V36.9267C7.92038 37.1533 8.59233 37.2666 9.26367 37.2665C10.8264 37.2665 12.385 36.6552 13.7125 35.4439C15.45 33.8595 17.6087 33.8595 19.3462 35.4439C22.0072 37.8707 25.5829 37.8706 28.2438 35.4439C29.9814 33.8595 32.1401 33.8595 33.8774 35.4439C36.5385 37.8707 40.1141 37.8706 42.775 35.4439C44.5125 33.8594 46.6712 33.8596 48.4087 35.4439C50.261 37.1334 52.5868 37.6526 54.7344 36.963ZM56.7106 48.2533C55.5433 51.6952 52.3159 54.0078 48.6797 54.0078H13.3203C9.68411 54.0078 6.45672 51.6952 5.28974 48.254C5.03847 47.5117 5.67942 46.7422 6.47367 46.7422H55.5263C56.3235 46.7422 56.9603 47.5154 56.7106 48.2533ZM58.3672 44.3203H3.63281C2.9651 44.3203 2.42188 43.7771 2.42188 43.1094C2.42188 42.4408 2.96425 41.8984 3.63281 41.8984H58.3672C59.0349 41.8984 59.5781 42.4417 59.5781 43.1094C59.5781 43.7779 59.0357 44.3203 58.3672 44.3203Z" fill="black"/>
</svg>
