<svg width="311" height="67" viewBox="0 0 311 67" fill="none" xmlns="http://www.w3.org/2000/svg">
<path d="M36.9551 31.0371H33.1406L32.6133 27.627C32.1094 27.123 31.4707 26.7246 30.6973 26.4316C29.9355 26.1387 29.0332 25.9922 27.9902 25.9922C25.7637 25.9922 24.0469 26.8008 22.8398 28.418C21.6445 30.0352 21.0469 32.1445 21.0469 34.7461V35.6426C21.0469 38.2441 21.6445 40.3594 22.8398 41.9883C24.0352 43.6172 25.7227 44.4316 27.9023 44.4316C28.9102 44.4316 29.8301 44.2852 30.6621 43.9922C31.5059 43.6992 32.1562 43.3008 32.6133 42.7969L33.1406 39.3867H36.9551V44.4492C35.9238 45.6445 34.6055 46.5996 33 47.3145C31.4062 48.0176 29.6191 48.3691 27.6387 48.3691C24.2051 48.3691 21.3926 47.1797 19.2012 44.8008C17.0098 42.4219 15.9141 39.3691 15.9141 35.6426V34.7812C15.9141 31.0664 17.0039 28.0137 19.1836 25.623C21.3633 23.2324 24.1816 22.0371 27.6387 22.0371C29.6191 22.0371 31.4062 22.4004 33 23.127C34.5938 23.8418 35.9121 24.791 36.9551 25.9746V31.0371ZM51.5625 48C51.4219 47.6836 51.2988 47.3613 51.1934 47.0332C51.0879 46.6934 51.0059 46.3535 50.9473 46.0137C50.3379 46.7168 49.5938 47.2852 48.7148 47.7188C47.8477 48.1523 46.8516 48.3691 45.7266 48.3691C43.8633 48.3691 42.3809 47.8652 41.2793 46.8574C40.1895 45.8379 39.6445 44.4551 39.6445 42.709C39.6445 40.9277 40.3594 39.5508 41.7891 38.5781C43.2188 37.6055 45.3164 37.1191 48.082 37.1191H50.7012V35.2559C50.7012 34.3418 50.4375 33.6328 49.9102 33.1289C49.3828 32.625 48.6035 32.373 47.5723 32.373C46.9863 32.373 46.4648 32.4434 46.0078 32.584C45.5508 32.7129 45.1816 32.8711 44.9004 33.0586L44.5664 35.0977H40.6992L40.7168 30.8789C41.6543 30.2461 42.7266 29.7129 43.9336 29.2793C45.1523 28.8457 46.4766 28.6289 47.9062 28.6289C50.2617 28.6289 52.1719 29.209 53.6367 30.3691C55.1133 31.5176 55.8516 33.1582 55.8516 35.291V43.1484C55.8516 43.4414 55.8516 43.7168 55.8516 43.9746C55.8633 44.2324 55.8867 44.4785 55.9219 44.7129L57.4863 44.9238V48H51.5625ZM47.1152 44.5723C47.8887 44.5723 48.5918 44.4082 49.2246 44.0801C49.8574 43.7402 50.3496 43.3184 50.7012 42.8145V39.9141H48.082C46.9922 39.9141 46.166 40.1719 45.6035 40.6875C45.041 41.1914 44.7598 41.8008 44.7598 42.5156C44.7598 43.1602 44.9648 43.6641 45.375 44.0273C45.7969 44.3906 46.377 44.5723 47.1152 44.5723ZM59.6309 44.9238L62.0918 44.3965V32.6016L59.3672 32.0742V28.9805H66.873L67.1016 31.7578C67.5469 30.7734 68.1211 30.0059 68.8242 29.4551C69.5273 28.9043 70.3418 28.6289 71.2676 28.6289C71.5371 28.6289 71.8184 28.6523 72.1113 28.6992C72.416 28.7344 72.668 28.7812 72.8672 28.8398L72.3223 33.5156L70.2129 33.4629C69.4629 33.4629 68.8418 33.6094 68.3496 33.9023C67.8574 34.1953 67.4824 34.6113 67.2246 35.1504V44.3965L69.6855 44.9238V48H59.6309V44.9238ZM86.4199 45.6797C85.8223 46.5586 85.1133 47.2266 84.293 47.6836C83.4844 48.1406 82.5586 48.3691 81.5156 48.3691C79.1719 48.3691 77.3496 47.5137 76.0488 45.8027C74.7598 44.0918 74.1152 41.8301 74.1152 39.0176V38.6484C74.1152 35.6484 74.7656 33.2285 76.0664 31.3887C77.3672 29.5488 79.1953 28.6289 81.5508 28.6289C82.5 28.6289 83.3555 28.8398 84.1172 29.2617C84.8789 29.6719 85.5469 30.2578 86.1211 31.0195V24.1992L83.3789 23.6719V20.5781H86.1211H91.2539V44.3965L93.7148 44.9238V48H86.8066L86.4199 45.6797ZM79.248 39.0176C79.248 40.6816 79.5234 41.9941 80.0742 42.9551C80.6367 43.9043 81.5508 44.3789 82.8164 44.3789C83.5664 44.3789 84.2168 44.2266 84.7676 43.9219C85.3184 43.6172 85.7695 43.1777 86.1211 42.6035V34.5352C85.7695 33.9258 85.3184 33.457 84.7676 33.1289C84.2285 32.7891 83.5898 32.6191 82.8516 32.6191C81.5977 32.6191 80.6836 33.1758 80.1094 34.2891C79.5352 35.4023 79.248 36.8555 79.248 38.6484V39.0176ZM107.461 48C107.32 47.6836 107.197 47.3613 107.092 47.0332C106.986 46.6934 106.904 46.3535 106.846 46.0137C106.236 46.7168 105.492 47.2852 104.613 47.7188C103.746 48.1523 102.75 48.3691 101.625 48.3691C99.7617 48.3691 98.2793 47.8652 97.1777 46.8574C96.0879 45.8379 95.543 44.4551 95.543 42.709C95.543 40.9277 96.2578 39.5508 97.6875 38.5781C99.1172 37.6055 101.215 37.1191 103.98 37.1191H106.6V35.2559C106.6 34.3418 106.336 33.6328 105.809 33.1289C105.281 32.625 104.502 32.373 103.471 32.373C102.885 32.373 102.363 32.4434 101.906 32.584C101.449 32.7129 101.08 32.8711 100.799 33.0586L100.465 35.0977H96.5977L96.6152 30.8789C97.5527 30.2461 98.625 29.7129 99.832 29.2793C101.051 28.8457 102.375 28.6289 103.805 28.6289C106.16 28.6289 108.07 29.209 109.535 30.3691C111.012 31.5176 111.75 33.1582 111.75 35.291V43.1484C111.75 43.4414 111.75 43.7168 111.75 43.9746C111.762 44.2324 111.785 44.4785 111.82 44.7129L113.385 44.9238V48H107.461ZM103.014 44.5723C103.787 44.5723 104.49 44.4082 105.123 44.0801C105.756 43.7402 106.248 43.3184 106.6 42.8145V39.9141H103.98C102.891 39.9141 102.064 40.1719 101.502 40.6875C100.939 41.1914 100.658 41.8008 100.658 42.5156C100.658 43.1602 100.863 43.6641 101.273 44.0273C101.695 44.3906 102.275 44.5723 103.014 44.5723ZM114.756 32.0742V28.9805H122.209L122.455 31.1953C123.018 30.375 123.691 29.7422 124.477 29.2969C125.262 28.8516 126.176 28.6289 127.219 28.6289C129.574 28.6289 131.402 29.5488 132.703 31.3887C134.004 33.2285 134.654 35.6484 134.654 38.6484V39.0176C134.654 41.8301 134.004 44.0918 132.703 45.8027C131.402 47.5137 129.586 48.3691 127.254 48.3691C126.258 48.3691 125.373 48.1875 124.6 47.8242C123.826 47.4492 123.164 46.9043 122.613 46.1895V51.6914L125.092 52.2188V55.3125H115.02V52.2188L117.498 51.6914V32.6016L114.756 32.0742ZM129.521 38.6484C129.521 36.8555 129.223 35.4023 128.625 34.2891C128.027 33.1758 127.113 32.6191 125.883 32.6191C125.109 32.6191 124.447 32.7773 123.896 33.0938C123.357 33.4102 122.93 33.8613 122.613 34.4473V42.7793C122.93 43.3184 123.357 43.7285 123.896 44.0098C124.447 44.291 125.121 44.4316 125.918 44.4316C127.16 44.4316 128.068 43.9453 128.643 42.9727C129.229 42 129.521 40.6816 129.521 39.0176V38.6484ZM136.781 44.9238L139.26 44.3965V32.6016L136.518 32.0742V28.9805H144.393V44.3965L146.854 44.9238V48H136.781V44.9238ZM144.393 24.4277H139.26V20.5781H144.393V24.4277ZM148.541 38.3145C148.541 35.4785 149.332 33.1582 150.914 31.3535C152.508 29.5371 154.705 28.6289 157.506 28.6289C160.318 28.6289 162.516 29.5312 164.098 31.3359C165.691 33.1406 166.488 35.4668 166.488 38.3145V38.6836C166.488 41.543 165.691 43.875 164.098 45.6797C162.516 47.4727 160.33 48.3691 157.541 48.3691C154.717 48.3691 152.508 47.4727 150.914 45.6797C149.332 43.875 148.541 41.543 148.541 38.6836V38.3145ZM153.674 38.6836C153.674 40.418 153.979 41.8125 154.588 42.8672C155.197 43.9102 156.182 44.4316 157.541 44.4316C158.865 44.4316 159.832 43.9043 160.441 42.8496C161.062 41.7949 161.373 40.4062 161.373 38.6836V38.3145C161.373 36.627 161.062 35.25 160.441 34.1836C159.82 33.1172 158.842 32.584 157.506 32.584C156.17 32.584 155.197 33.1172 154.588 34.1836C153.979 35.25 153.674 36.627 153.674 38.3145V38.6836ZM188.936 22.4062C192.064 22.4062 194.643 23.4082 196.67 25.4121C198.697 27.4043 199.711 29.9648 199.711 33.0938V37.3301C199.711 40.4707 198.697 43.0371 196.67 45.0293C194.643 47.0098 192.064 48 188.936 48H177.422V44.9238L180.146 44.3965V26.0273L177.422 25.5V22.4062H180.146H188.936ZM185.279 26.3613V44.0625H188.672C190.512 44.0625 191.953 43.4414 192.996 42.1992C194.039 40.957 194.561 39.334 194.561 37.3301V33.0586C194.561 31.0781 194.039 29.4668 192.996 28.2246C191.953 26.9824 190.512 26.3613 188.672 26.3613H185.279ZM202.207 44.9238L204.686 44.3965V32.6016L201.943 32.0742V28.9805H209.818V44.3965L212.279 44.9238V48H202.207V44.9238ZM209.818 24.4277H204.686V20.5781H209.818V24.4277ZM214.283 38.6484C214.283 35.6484 214.934 33.2285 216.234 31.3887C217.547 29.5488 219.381 28.6289 221.736 28.6289C222.803 28.6289 223.74 28.8691 224.549 29.3496C225.357 29.8184 226.049 30.4922 226.623 31.3711L226.992 28.9805H231.457V47.4375C231.457 49.9453 230.666 51.9434 229.084 53.4316C227.514 54.9316 225.352 55.6816 222.598 55.6816C221.637 55.6816 220.617 55.5469 219.539 55.2773C218.461 55.0195 217.465 54.6621 216.551 54.2051L217.5 50.6016C218.32 50.9531 219.141 51.2285 219.961 51.4277C220.781 51.6387 221.648 51.7441 222.562 51.7441C223.816 51.7441 224.754 51.3633 225.375 50.6016C225.996 49.8398 226.307 48.7793 226.307 47.4199V46.1719C225.744 46.8867 225.082 47.4316 224.32 47.8066C223.559 48.1816 222.686 48.3691 221.701 48.3691C219.369 48.3691 217.547 47.5137 216.234 45.8027C214.934 44.0801 214.283 41.8184 214.283 39.0176V38.6484ZM219.416 39.0176C219.416 40.6816 219.697 41.9941 220.26 42.9551C220.822 43.9043 221.736 44.3789 223.002 44.3789C223.787 44.3789 224.449 44.2383 224.988 43.957C225.539 43.6641 225.979 43.2422 226.307 42.6914V34.4297C225.979 33.8555 225.539 33.4102 224.988 33.0938C224.449 32.7773 223.799 32.6191 223.037 32.6191C221.783 32.6191 220.863 33.1758 220.277 34.2891C219.703 35.4023 219.416 36.8555 219.416 38.6484V39.0176ZM234.375 44.9238L236.854 44.3965V32.6016L234.111 32.0742V28.9805H241.986V44.3965L244.447 44.9238V48H234.375V44.9238ZM241.986 24.4277H236.854V20.5781H241.986V24.4277ZM253.711 24.3223V28.9805H257.051V32.584H253.711V42.2695C253.711 43.0078 253.863 43.5352 254.168 43.8516C254.473 44.168 254.883 44.3262 255.398 44.3262C255.75 44.3262 256.055 44.3145 256.312 44.291C256.582 44.2559 256.881 44.2031 257.209 44.1328L257.648 47.8418C257.074 48.0176 256.506 48.1465 255.943 48.2285C255.381 48.3223 254.771 48.3691 254.115 48.3691C252.346 48.3691 250.98 47.8828 250.02 46.9102C249.07 45.9375 248.596 44.3965 248.596 42.2871V32.584H245.801V28.9805H248.596V24.3223H253.711ZM271.676 48C271.535 47.6836 271.412 47.3613 271.307 47.0332C271.201 46.6934 271.119 46.3535 271.061 46.0137C270.451 46.7168 269.707 47.2852 268.828 47.7188C267.961 48.1523 266.965 48.3691 265.84 48.3691C263.977 48.3691 262.494 47.8652 261.393 46.8574C260.303 45.8379 259.758 44.4551 259.758 42.709C259.758 40.9277 260.473 39.5508 261.902 38.5781C263.332 37.6055 265.43 37.1191 268.195 37.1191H270.814V35.2559C270.814 34.3418 270.551 33.6328 270.023 33.1289C269.496 32.625 268.717 32.373 267.686 32.373C267.1 32.373 266.578 32.4434 266.121 32.584C265.664 32.7129 265.295 32.8711 265.014 33.0586L264.68 35.0977H260.812L260.83 30.8789C261.768 30.2461 262.84 29.7129 264.047 29.2793C265.266 28.8457 266.59 28.6289 268.02 28.6289C270.375 28.6289 272.285 29.209 273.75 30.3691C275.227 31.5176 275.965 33.1582 275.965 35.291V43.1484C275.965 43.4414 275.965 43.7168 275.965 43.9746C275.977 44.2324 276 44.4785 276.035 44.7129L277.6 44.9238V48H271.676ZM267.229 44.5723C268.002 44.5723 268.705 44.4082 269.338 44.0801C269.971 43.7402 270.463 43.3184 270.814 42.8145V39.9141H268.195C267.105 39.9141 266.279 40.1719 265.717 40.6875C265.154 41.1914 264.873 41.8008 264.873 42.5156C264.873 43.1602 265.078 43.6641 265.488 44.0273C265.91 44.3906 266.49 44.5723 267.229 44.5723ZM278.812 23.6719V20.5781H286.688V44.3965L289.166 44.9238V48H279.076V44.9238L281.555 44.3965V24.1992L278.812 23.6719Z" fill="#545454"/>
<line x1="1.31134e-07" y1="1.5" x2="302" y2="1.50003" stroke="#C4C4C4" stroke-width="3"/>
<line x1="-1.31134e-07" y1="65.5" x2="302" y2="65.5" stroke="#C4C4C4" stroke-width="3"/>
<circle cx="4" cy="36" r="4" fill="#C4C4C4"/>
<circle cx="298" cy="36" r="4" fill="#C4C4C4"/>
</svg>
