<svg width="354" height="66" viewBox="0 0 354 66" fill="none" xmlns="http://www.w3.org/2000/svg">
<path d="M59.9551 27.0371H56.1406L55.6133 23.627C55.1094 23.123 54.4707 22.7246 53.6973 22.4316C52.9355 22.1387 52.0332 21.9922 50.9902 21.9922C48.7637 21.9922 47.0469 22.8008 45.8398 24.418C44.6445 26.0352 44.0469 28.1445 44.0469 30.7461V31.6426C44.0469 34.2441 44.6445 36.3594 45.8398 37.9883C47.0352 39.6172 48.7227 40.4316 50.9023 40.4316C51.9102 40.4316 52.8301 40.2852 53.6621 39.9922C54.5059 39.6992 55.1562 39.3008 55.6133 38.7969L56.1406 35.3867H59.9551V40.4492C58.9238 41.6445 57.6055 42.5996 56 43.3145C54.4062 44.0176 52.6191 44.3691 50.6387 44.3691C47.2051 44.3691 44.3926 43.1797 42.2012 40.8008C40.0098 38.4219 38.9141 35.3691 38.9141 31.6426V30.7812C38.9141 27.0664 40.0039 24.0137 42.1836 21.623C44.3633 19.2324 47.1816 18.0371 50.6387 18.0371C52.6191 18.0371 54.4062 18.4004 56 19.127C57.5938 19.8418 58.9121 20.791 59.9551 21.9746V27.0371ZM74.5625 44C74.4219 43.6836 74.2988 43.3613 74.1934 43.0332C74.0879 42.6934 74.0059 42.3535 73.9473 42.0137C73.3379 42.7168 72.5938 43.2852 71.7148 43.7188C70.8477 44.1523 69.8516 44.3691 68.7266 44.3691C66.8633 44.3691 65.3809 43.8652 64.2793 42.8574C63.1895 41.8379 62.6445 40.4551 62.6445 38.709C62.6445 36.9277 63.3594 35.5508 64.7891 34.5781C66.2188 33.6055 68.3164 33.1191 71.082 33.1191H73.7012V31.2559C73.7012 30.3418 73.4375 29.6328 72.9102 29.1289C72.3828 28.625 71.6035 28.373 70.5723 28.373C69.9863 28.373 69.4648 28.4434 69.0078 28.584C68.5508 28.7129 68.1816 28.8711 67.9004 29.0586L67.5664 31.0977H63.6992L63.7168 26.8789C64.6543 26.2461 65.7266 25.7129 66.9336 25.2793C68.1523 24.8457 69.4766 24.6289 70.9062 24.6289C73.2617 24.6289 75.1719 25.209 76.6367 26.3691C78.1133 27.5176 78.8516 29.1582 78.8516 31.291V39.1484C78.8516 39.4414 78.8516 39.7168 78.8516 39.9746C78.8633 40.2324 78.8867 40.4785 78.9219 40.7129L80.4863 40.9238V44H74.5625ZM70.1152 40.5723C70.8887 40.5723 71.5918 40.4082 72.2246 40.0801C72.8574 39.7402 73.3496 39.3184 73.7012 38.8145V35.9141H71.082C69.9922 35.9141 69.166 36.1719 68.6035 36.6875C68.041 37.1914 67.7598 37.8008 67.7598 38.5156C67.7598 39.1602 67.9648 39.6641 68.375 40.0273C68.7969 40.3906 69.377 40.5723 70.1152 40.5723ZM82.6309 40.9238L85.0918 40.3965V28.6016L82.3672 28.0742V24.9805H89.873L90.1016 27.7578C90.5469 26.7734 91.1211 26.0059 91.8242 25.4551C92.5273 24.9043 93.3418 24.6289 94.2676 24.6289C94.5371 24.6289 94.8184 24.6523 95.1113 24.6992C95.416 24.7344 95.668 24.7812 95.8672 24.8398L95.3223 29.5156L93.2129 29.4629C92.4629 29.4629 91.8418 29.6094 91.3496 29.9023C90.8574 30.1953 90.4824 30.6113 90.2246 31.1504V40.3965L92.6855 40.9238V44H82.6309V40.9238ZM109.42 41.6797C108.822 42.5586 108.113 43.2266 107.293 43.6836C106.484 44.1406 105.559 44.3691 104.516 44.3691C102.172 44.3691 100.35 43.5137 99.0488 41.8027C97.7598 40.0918 97.1152 37.8301 97.1152 35.0176V34.6484C97.1152 31.6484 97.7656 29.2285 99.0664 27.3887C100.367 25.5488 102.195 24.6289 104.551 24.6289C105.5 24.6289 106.355 24.8398 107.117 25.2617C107.879 25.6719 108.547 26.2578 109.121 27.0195V20.1992L106.379 19.6719V16.5781H109.121H114.254V40.3965L116.715 40.9238V44H109.807L109.42 41.6797ZM102.248 35.0176C102.248 36.6816 102.523 37.9941 103.074 38.9551C103.637 39.9043 104.551 40.3789 105.816 40.3789C106.566 40.3789 107.217 40.2266 107.768 39.9219C108.318 39.6172 108.77 39.1777 109.121 38.6035V30.5352C108.77 29.9258 108.318 29.457 107.768 29.1289C107.229 28.7891 106.59 28.6191 105.852 28.6191C104.598 28.6191 103.684 29.1758 103.109 30.2891C102.535 31.4023 102.248 32.8555 102.248 34.6484V35.0176ZM130.461 44C130.32 43.6836 130.197 43.3613 130.092 43.0332C129.986 42.6934 129.904 42.3535 129.846 42.0137C129.236 42.7168 128.492 43.2852 127.613 43.7188C126.746 44.1523 125.75 44.3691 124.625 44.3691C122.762 44.3691 121.279 43.8652 120.178 42.8574C119.088 41.8379 118.543 40.4551 118.543 38.709C118.543 36.9277 119.258 35.5508 120.688 34.5781C122.117 33.6055 124.215 33.1191 126.98 33.1191H129.6V31.2559C129.6 30.3418 129.336 29.6328 128.809 29.1289C128.281 28.625 127.502 28.373 126.471 28.373C125.885 28.373 125.363 28.4434 124.906 28.584C124.449 28.7129 124.08 28.8711 123.799 29.0586L123.465 31.0977H119.598L119.615 26.8789C120.553 26.2461 121.625 25.7129 122.832 25.2793C124.051 24.8457 125.375 24.6289 126.805 24.6289C129.16 24.6289 131.07 25.209 132.535 26.3691C134.012 27.5176 134.75 29.1582 134.75 31.291V39.1484C134.75 39.4414 134.75 39.7168 134.75 39.9746C134.762 40.2324 134.785 40.4785 134.82 40.7129L136.385 40.9238V44H130.461ZM126.014 40.5723C126.787 40.5723 127.49 40.4082 128.123 40.0801C128.756 39.7402 129.248 39.3184 129.6 38.8145V35.9141H126.98C125.891 35.9141 125.064 36.1719 124.502 36.6875C123.939 37.1914 123.658 37.8008 123.658 38.5156C123.658 39.1602 123.863 39.6641 124.273 40.0273C124.695 40.3906 125.275 40.5723 126.014 40.5723ZM137.756 28.0742V24.9805H145.209L145.455 27.1953C146.018 26.375 146.691 25.7422 147.477 25.2969C148.262 24.8516 149.176 24.6289 150.219 24.6289C152.574 24.6289 154.402 25.5488 155.703 27.3887C157.004 29.2285 157.654 31.6484 157.654 34.6484V35.0176C157.654 37.8301 157.004 40.0918 155.703 41.8027C154.402 43.5137 152.586 44.3691 150.254 44.3691C149.258 44.3691 148.373 44.1875 147.6 43.8242C146.826 43.4492 146.164 42.9043 145.613 42.1895V47.6914L148.092 48.2188V51.3125H138.02V48.2188L140.498 47.6914V28.6016L137.756 28.0742ZM152.521 34.6484C152.521 32.8555 152.223 31.4023 151.625 30.2891C151.027 29.1758 150.113 28.6191 148.883 28.6191C148.109 28.6191 147.447 28.7773 146.896 29.0938C146.357 29.4102 145.93 29.8613 145.613 30.4473V38.7793C145.93 39.3184 146.357 39.7285 146.896 40.0098C147.447 40.291 148.121 40.4316 148.918 40.4316C150.16 40.4316 151.068 39.9453 151.643 38.9727C152.229 38 152.521 36.6816 152.521 35.0176V34.6484ZM159.781 40.9238L162.26 40.3965V28.6016L159.518 28.0742V24.9805H167.393V40.3965L169.854 40.9238V44H159.781V40.9238ZM167.393 20.4277H162.26V16.5781H167.393V20.4277ZM171.541 34.3145C171.541 31.4785 172.332 29.1582 173.914 27.3535C175.508 25.5371 177.705 24.6289 180.506 24.6289C183.318 24.6289 185.516 25.5312 187.098 27.3359C188.691 29.1406 189.488 31.4668 189.488 34.3145V34.6836C189.488 37.543 188.691 39.875 187.098 41.6797C185.516 43.4727 183.33 44.3691 180.541 44.3691C177.717 44.3691 175.508 43.4727 173.914 41.6797C172.332 39.875 171.541 37.543 171.541 34.6836V34.3145ZM176.674 34.6836C176.674 36.418 176.979 37.8125 177.588 38.8672C178.197 39.9102 179.182 40.4316 180.541 40.4316C181.865 40.4316 182.832 39.9043 183.441 38.8496C184.062 37.7949 184.373 36.4062 184.373 34.6836V34.3145C184.373 32.627 184.062 31.25 183.441 30.1836C182.82 29.1172 181.842 28.584 180.506 28.584C179.17 28.584 178.197 29.1172 177.588 30.1836C176.979 31.25 176.674 32.627 176.674 34.3145V34.6836ZM211.936 18.4062C215.064 18.4062 217.643 19.4082 219.67 21.4121C221.697 23.4043 222.711 25.9648 222.711 29.0938V33.3301C222.711 36.4707 221.697 39.0371 219.67 41.0293C217.643 43.0098 215.064 44 211.936 44H200.422V40.9238L203.146 40.3965V22.0273L200.422 21.5V18.4062H203.146H211.936ZM208.279 22.3613V40.0625H211.672C213.512 40.0625 214.953 39.4414 215.996 38.1992C217.039 36.957 217.561 35.334 217.561 33.3301V29.0586C217.561 27.0781 217.039 25.4668 215.996 24.2246C214.953 22.9824 213.512 22.3613 211.672 22.3613H208.279ZM225.207 40.9238L227.686 40.3965V28.6016L224.943 28.0742V24.9805H232.818V40.3965L235.279 40.9238V44H225.207V40.9238ZM232.818 20.4277H227.686V16.5781H232.818V20.4277ZM237.283 34.6484C237.283 31.6484 237.934 29.2285 239.234 27.3887C240.547 25.5488 242.381 24.6289 244.736 24.6289C245.803 24.6289 246.74 24.8691 247.549 25.3496C248.357 25.8184 249.049 26.4922 249.623 27.3711L249.992 24.9805H254.457V43.4375C254.457 45.9453 253.666 47.9434 252.084 49.4316C250.514 50.9316 248.352 51.6816 245.598 51.6816C244.637 51.6816 243.617 51.5469 242.539 51.2773C241.461 51.0195 240.465 50.6621 239.551 50.2051L240.5 46.6016C241.32 46.9531 242.141 47.2285 242.961 47.4277C243.781 47.6387 244.648 47.7441 245.562 47.7441C246.816 47.7441 247.754 47.3633 248.375 46.6016C248.996 45.8398 249.307 44.7793 249.307 43.4199V42.1719C248.744 42.8867 248.082 43.4316 247.32 43.8066C246.559 44.1816 245.686 44.3691 244.701 44.3691C242.369 44.3691 240.547 43.5137 239.234 41.8027C237.934 40.0801 237.283 37.8184 237.283 35.0176V34.6484ZM242.416 35.0176C242.416 36.6816 242.697 37.9941 243.26 38.9551C243.822 39.9043 244.736 40.3789 246.002 40.3789C246.787 40.3789 247.449 40.2383 247.988 39.957C248.539 39.6641 248.979 39.2422 249.307 38.6914V30.4297C248.979 29.8555 248.539 29.4102 247.988 29.0938C247.449 28.7773 246.799 28.6191 246.037 28.6191C244.783 28.6191 243.863 29.1758 243.277 30.2891C242.703 31.4023 242.416 32.8555 242.416 34.6484V35.0176ZM257.375 40.9238L259.854 40.3965V28.6016L257.111 28.0742V24.9805H264.986V40.3965L267.447 40.9238V44H257.375V40.9238ZM264.986 20.4277H259.854V16.5781H264.986V20.4277ZM276.711 20.3223V24.9805H280.051V28.584H276.711V38.2695C276.711 39.0078 276.863 39.5352 277.168 39.8516C277.473 40.168 277.883 40.3262 278.398 40.3262C278.75 40.3262 279.055 40.3145 279.312 40.291C279.582 40.2559 279.881 40.2031 280.209 40.1328L280.648 43.8418C280.074 44.0176 279.506 44.1465 278.943 44.2285C278.381 44.3223 277.771 44.3691 277.115 44.3691C275.346 44.3691 273.98 43.8828 273.02 42.9102C272.07 41.9375 271.596 40.3965 271.596 38.2871V28.584H268.801V24.9805H271.596V20.3223H276.711ZM294.676 44C294.535 43.6836 294.412 43.3613 294.307 43.0332C294.201 42.6934 294.119 42.3535 294.061 42.0137C293.451 42.7168 292.707 43.2852 291.828 43.7188C290.961 44.1523 289.965 44.3691 288.84 44.3691C286.977 44.3691 285.494 43.8652 284.393 42.8574C283.303 41.8379 282.758 40.4551 282.758 38.709C282.758 36.9277 283.473 35.5508 284.902 34.5781C286.332 33.6055 288.43 33.1191 291.195 33.1191H293.814V31.2559C293.814 30.3418 293.551 29.6328 293.023 29.1289C292.496 28.625 291.717 28.373 290.686 28.373C290.1 28.373 289.578 28.4434 289.121 28.584C288.664 28.7129 288.295 28.8711 288.014 29.0586L287.68 31.0977H283.812L283.83 26.8789C284.768 26.2461 285.84 25.7129 287.047 25.2793C288.266 24.8457 289.59 24.6289 291.02 24.6289C293.375 24.6289 295.285 25.209 296.75 26.3691C298.227 27.5176 298.965 29.1582 298.965 31.291V39.1484C298.965 39.4414 298.965 39.7168 298.965 39.9746C298.977 40.2324 299 40.4785 299.035 40.7129L300.6 40.9238V44H294.676ZM290.229 40.5723C291.002 40.5723 291.705 40.4082 292.338 40.0801C292.971 39.7402 293.463 39.3184 293.814 38.8145V35.9141H291.195C290.105 35.9141 289.279 36.1719 288.717 36.6875C288.154 37.1914 287.873 37.8008 287.873 38.5156C287.873 39.1602 288.078 39.6641 288.488 40.0273C288.91 40.3906 289.49 40.5723 290.229 40.5723ZM301.812 19.6719V16.5781H309.688V40.3965L312.166 40.9238V44H302.076V40.9238L304.555 40.3965V20.1992L301.812 19.6719Z" fill="black"/>
<line x1="2" y1="1.5" x2="354" y2="1.5" stroke="#888888" stroke-width="3"/>
<line y1="65.5" x2="352" y2="65.5" stroke="#888888"/>
<line x1="2" y1="1.5" x2="354" y2="1.5" stroke="#888888" stroke-width="3"/>
<line y1="65.5" x2="352" y2="65.5" stroke="#888888"/>
<line x1="2" y1="1.5" x2="354" y2="1.5" stroke="#888888" stroke-width="3"/>
<line y1="65.5" x2="352" y2="65.5" stroke="#888888"/>
<line y1="64.5" x2="352" y2="64.5" stroke="#888888" stroke-width="3"/>
<circle cx="333.5" cy="32.5" r="3.5" fill="#929292"/>
<circle cx="19.5" cy="32.5" r="3.5" fill="#929292"/>
</svg>
