<svg width="337" height="186" viewBox="0 0 337 186" fill="none" xmlns="http://www.w3.org/2000/svg">
<path d="M27.7734 111.125C34.7266 111.125 40.4557 113.352 44.9609 117.805C49.4661 122.232 51.7188 127.922 51.7188 134.875V144.289C51.7188 151.268 49.4661 156.971 44.9609 161.398C40.4557 165.799 34.7266 168 27.7734 168H2.1875V161.164L8.24219 159.992V119.172L2.1875 118V111.125H8.24219H27.7734ZM19.6484 119.914V159.25H27.1875C31.276 159.25 34.4792 157.87 36.7969 155.109C39.1146 152.349 40.2734 148.742 40.2734 144.289V134.797C40.2734 130.396 39.1146 126.815 36.7969 124.055C34.4792 121.294 31.276 119.914 27.1875 119.914H19.6484ZM57.2656 161.164L62.7734 159.992V133.781L56.6797 132.609V125.734H74.1797V159.992L79.6484 161.164V168H57.2656V161.164ZM74.1797 115.617H62.7734V107.062H74.1797V115.617ZM84.1016 147.219C84.1016 140.552 85.5469 135.174 88.4375 131.086C91.3542 126.997 95.4297 124.953 100.664 124.953C103.034 124.953 105.117 125.487 106.914 126.555C108.711 127.596 110.247 129.094 111.523 131.047L112.344 125.734H122.266V166.75C122.266 172.323 120.508 176.763 116.992 180.07C113.503 183.404 108.698 185.07 102.578 185.07C100.443 185.07 98.1771 184.771 95.7812 184.172C93.3854 183.599 91.1719 182.805 89.1406 181.789L91.25 173.781C93.0729 174.562 94.8958 175.174 96.7188 175.617C98.5417 176.086 100.469 176.32 102.5 176.32C105.286 176.32 107.37 175.474 108.75 173.781C110.13 172.089 110.82 169.732 110.82 166.711V163.938C109.57 165.526 108.099 166.737 106.406 167.57C104.714 168.404 102.773 168.82 100.586 168.82C95.4036 168.82 91.3542 166.919 88.4375 163.117C85.5469 159.289 84.1016 154.263 84.1016 148.039V147.219ZM95.5078 148.039C95.5078 151.737 96.1328 154.654 97.3828 156.789C98.6328 158.898 100.664 159.953 103.477 159.953C105.221 159.953 106.693 159.641 107.891 159.016C109.115 158.365 110.091 157.427 110.82 156.203V137.844C110.091 136.568 109.115 135.578 107.891 134.875C106.693 134.172 105.247 133.82 103.555 133.82C100.768 133.82 98.724 135.057 97.4219 137.531C96.1458 140.005 95.5078 143.234 95.5078 147.219V148.039ZM128.75 161.164L134.258 159.992V133.781L128.164 132.609V125.734H145.664V159.992L151.133 161.164V168H128.75V161.164ZM145.664 115.617H134.258V107.062H145.664V115.617ZM171.719 115.383V125.734H179.141V133.742H171.719V155.266C171.719 156.906 172.057 158.078 172.734 158.781C173.411 159.484 174.323 159.836 175.469 159.836C176.25 159.836 176.927 159.81 177.5 159.758C178.099 159.68 178.763 159.562 179.492 159.406L180.469 167.648C179.193 168.039 177.93 168.326 176.68 168.508C175.43 168.716 174.076 168.82 172.617 168.82C168.685 168.82 165.651 167.74 163.516 165.578C161.406 163.417 160.352 159.992 160.352 155.305V133.742H154.141V125.734H160.352V115.383H171.719ZM211.641 168C211.328 167.297 211.055 166.581 210.82 165.852C210.586 165.096 210.404 164.341 210.273 163.586C208.919 165.148 207.266 166.411 205.312 167.375C203.385 168.339 201.172 168.82 198.672 168.82C194.531 168.82 191.237 167.701 188.789 165.461C186.367 163.195 185.156 160.122 185.156 156.242C185.156 152.284 186.745 149.224 189.922 147.062C193.099 144.901 197.76 143.82 203.906 143.82H209.727V139.68C209.727 137.648 209.141 136.073 207.969 134.953C206.797 133.833 205.065 133.273 202.773 133.273C201.471 133.273 200.312 133.43 199.297 133.742C198.281 134.029 197.461 134.38 196.836 134.797L196.094 139.328H187.5L187.539 129.953C189.622 128.547 192.005 127.362 194.688 126.398C197.396 125.435 200.339 124.953 203.516 124.953C208.75 124.953 212.995 126.242 216.25 128.82C219.531 131.372 221.172 135.018 221.172 139.758V157.219C221.172 157.87 221.172 158.482 221.172 159.055C221.198 159.628 221.25 160.174 221.328 160.695L224.805 161.164V168H211.641ZM201.758 160.383C203.477 160.383 205.039 160.018 206.445 159.289C207.852 158.534 208.945 157.596 209.727 156.477V150.031H203.906C201.484 150.031 199.648 150.604 198.398 151.75C197.148 152.87 196.523 154.224 196.523 155.812C196.523 157.245 196.979 158.365 197.891 159.172C198.828 159.979 200.117 160.383 201.758 160.383ZM227.5 113.938V107.062H245V159.992L250.508 161.164V168H228.086V161.164L233.594 159.992V115.109L227.5 113.938Z" fill="#545454"/>
<path d="M287.651 104.248C285.596 101.509 282.822 100 279.84 100C276.858 100 274.085 101.509 272.03 104.248C270.076 106.853 269 110.293 269 113.934C269 117.574 270.076 121.014 272.03 123.619C273.173 125.143 274.539 126.285 276.039 126.999L273.745 161.485C273.633 163.165 274.229 164.834 275.38 166.064C276.531 167.294 278.157 167.999 279.841 167.999C281.525 167.999 283.15 167.294 284.301 166.065C285.451 164.835 286.047 163.166 285.935 161.485L283.642 126.999C285.142 126.285 286.508 125.144 287.651 123.62C289.604 121.014 290.681 117.574 290.681 113.934C290.681 110.294 289.605 106.854 287.651 104.248ZM282.023 163.934C281.452 164.544 280.677 164.88 279.841 164.88C279.004 164.88 278.229 164.544 277.657 163.933C277.086 163.322 276.802 162.526 276.857 161.692L279.109 127.834C279.351 127.854 279.595 127.868 279.84 127.868C280.086 127.868 280.329 127.854 280.571 127.834L282.823 161.692C282.878 162.527 282.594 163.323 282.023 163.934ZM279.84 124.749C279.282 124.749 278.737 124.663 278.211 124.504C278.168 124.488 278.124 124.474 278.079 124.461C274.668 123.342 272.119 119.048 272.119 113.934C272.119 107.971 275.583 103.119 279.84 103.119C284.098 103.119 287.562 107.971 287.562 113.934C287.562 119.897 284.098 124.749 279.84 124.749Z" fill="#545454"/>
<path d="M336.782 140.63V101.756L336.769 101.762C336.814 101.418 336.746 101.057 336.549 100.74C336.097 100.007 335.136 99.7803 334.403 100.233C328.04 104.167 324.241 110.98 324.24 118.459C324.24 118.46 324.24 118.461 324.24 118.462V138.886C324.24 140.678 325.672 142.137 327.45 142.192V163.311C327.45 165.884 329.543 167.978 332.116 167.978C334.689 167.978 336.782 165.884 336.782 163.311V140.638C336.782 140.635 336.782 140.633 336.782 140.63ZM327.551 139.078C327.445 139.078 327.359 138.992 327.359 138.886V118.465C327.359 118.464 327.359 118.463 327.359 118.463C327.359 113.068 329.672 108.078 333.663 104.632V139.078H327.551ZM333.663 163.312C333.663 164.165 332.969 164.859 332.116 164.859C331.263 164.859 330.569 164.165 330.569 163.312V142.197H333.663V163.312Z" fill="#545454"/>
<path d="M287.651 104.248C285.596 101.509 282.822 100 279.84 100C276.858 100 274.085 101.509 272.03 104.248C270.076 106.853 269 110.293 269 113.934C269 117.574 270.076 121.014 272.03 123.619C273.173 125.143 274.539 126.285 276.039 126.999L273.745 161.485C273.633 163.165 274.229 164.834 275.38 166.064C276.531 167.294 278.157 167.999 279.841 167.999C281.525 167.999 283.15 167.294 284.301 166.065C285.451 164.835 286.047 163.166 285.935 161.485L283.642 126.999C285.142 126.285 286.508 125.144 287.651 123.62C289.604 121.014 290.681 117.574 290.681 113.934C290.681 110.294 289.605 106.854 287.651 104.248ZM282.023 163.934C281.452 164.544 280.677 164.88 279.841 164.88C279.004 164.88 278.229 164.544 277.657 163.933C277.086 163.322 276.802 162.526 276.857 161.692L279.109 127.834C279.351 127.854 279.595 127.868 279.84 127.868C280.086 127.868 280.329 127.854 280.571 127.834L282.823 161.692C282.878 162.527 282.594 163.323 282.023 163.934ZM279.84 124.749C279.282 124.749 278.737 124.663 278.211 124.504C278.168 124.488 278.124 124.474 278.079 124.461C274.668 123.342 272.119 119.048 272.119 113.934C272.119 107.971 275.583 103.119 279.84 103.119C284.098 103.119 287.562 107.971 287.562 113.934C287.562 119.897 284.098 124.749 279.84 124.749Z" fill="#545454"/>
<path d="M313.091 100C312.23 100 311.531 100.699 311.531 101.56V119.277H307.558V101.56C307.558 100.699 306.859 100 305.998 100C305.137 100 304.438 100.699 304.438 101.56V119.277H300.465V101.56C300.465 100.699 299.766 100 298.905 100C298.044 100 297.345 100.699 297.345 101.56V124.136C297.345 126.678 299.414 128.746 301.956 128.746H302.233L300.045 161.637C299.935 163.278 300.517 164.908 301.641 166.109C302.765 167.311 304.353 168 305.998 168C307.643 168 309.231 167.311 310.355 166.109C311.479 164.908 312.06 163.278 311.95 161.638L309.762 128.746H310.04C312.582 128.746 314.651 126.678 314.651 124.136V101.56C314.65 100.699 313.952 100 313.091 100ZM308.077 163.978C307.532 164.56 306.794 164.881 305.998 164.881C305.201 164.881 304.463 164.56 303.919 163.978C303.375 163.397 303.104 162.639 303.157 161.845L305.359 128.746H306.636L308.838 161.845C308.891 162.639 308.621 163.397 308.077 163.978ZM311.531 124.136C311.531 124.958 310.862 125.627 310.04 125.627H303.848C303.846 125.627 303.844 125.627 303.842 125.627H301.956C301.134 125.627 300.465 124.958 300.465 124.136V122.396H311.531V124.136Z" fill="#545454"/>
<path d="M313.091 100C312.23 100 311.531 100.699 311.531 101.56V119.277H307.558V101.56C307.558 100.699 306.859 100 305.998 100C305.137 100 304.438 100.699 304.438 101.56V119.277H300.465V101.56C300.465 100.699 299.766 100 298.905 100C298.044 100 297.345 100.699 297.345 101.56V124.136C297.345 126.678 299.414 128.746 301.956 128.746H302.233L300.045 161.637C299.935 163.278 300.517 164.908 301.641 166.109C302.765 167.311 304.353 168 305.998 168C307.643 168 309.231 167.311 310.355 166.109C311.479 164.908 312.06 163.278 311.95 161.638L309.762 128.746H310.04C312.582 128.746 314.651 126.678 314.651 124.136V101.56C314.65 100.699 313.952 100 313.091 100ZM308.077 163.978C307.532 164.56 306.794 164.881 305.998 164.881C305.201 164.881 304.463 164.56 303.919 163.978C303.375 163.397 303.104 162.639 303.157 161.845L305.359 128.746H306.636L308.838 161.845C308.891 162.639 308.621 163.397 308.077 163.978ZM311.531 124.136C311.531 124.958 310.862 125.627 310.04 125.627H303.848C303.846 125.627 303.844 125.627 303.842 125.627H301.956C301.134 125.627 300.465 124.958 300.465 124.136V122.396H311.531V124.136Z" fill="#545454"/>
<path d="M48.0469 44.9375H44.4141L43.75 36.3047C42.2396 34.5078 40.2734 33.0625 37.8516 31.9688C35.4297 30.849 32.6302 30.2891 29.4531 30.2891C23.099 30.2891 18.0469 32.6068 14.2969 37.2422C10.5469 41.8516 8.67188 47.8151 8.67188 55.1328V55.9531C8.67188 63.2708 10.5208 69.2604 14.2188 73.9219C17.9427 78.5573 22.8255 80.875 28.8672 80.875C32.0703 80.875 34.974 80.3151 37.5781 79.1953C40.2083 78.0755 42.2656 76.6302 43.75 74.8594L44.4141 66.2266H48.0469V76.2266C46.276 78.6745 43.6849 80.7188 40.2734 82.3594C36.888 84 33.0859 84.8203 28.8672 84.8203C21.5755 84.8203 15.612 82.125 10.9766 76.7344C6.34115 71.3177 4.02344 64.3906 4.02344 55.9531V55.2109C4.02344 46.7474 6.32812 39.8203 10.9375 34.4297C15.5729 29.013 21.6276 26.3047 29.1016 26.3047C33.3203 26.3047 37.0833 27.138 40.3906 28.8047C43.724 30.4453 46.276 32.4896 48.0469 34.9375V44.9375ZM85.7031 84C85.3906 82.5677 85.1693 81.3307 85.0391 80.2891C84.9089 79.2474 84.8438 78.1927 84.8438 77.125C83.2812 79.3385 81.1979 81.1745 78.5938 82.6328C75.9896 84.0911 73.0599 84.8203 69.8047 84.8203C65.6641 84.8203 62.4609 83.7526 60.1953 81.6172C57.9297 79.4818 56.7969 76.5911 56.7969 72.9453C56.7969 69.0391 58.4766 65.9401 61.8359 63.6484C65.1953 61.3568 69.7526 60.2109 75.5078 60.2109H84.8438V54.625C84.8438 51.6042 83.8672 49.2344 81.9141 47.5156C79.987 45.7969 77.2786 44.9375 73.7891 44.9375C71.4453 44.9375 69.2969 45.263 67.3438 45.9141C65.4167 46.5391 63.8021 47.3984 62.5 48.4922L62.1094 54.1562H58.2422L58.2812 46.0312C60.2344 44.5208 62.5651 43.2969 65.2734 42.3594C68.0078 41.4219 70.9115 40.9531 73.9844 40.9531C78.6458 40.9531 82.3958 42.138 85.2344 44.5078C88.0729 46.8776 89.4922 50.276 89.4922 54.7031V75.4844C89.4922 76.3438 89.5052 77.1771 89.5312 77.9844C89.5833 78.7656 89.6745 79.5339 89.8047 80.2891L94.0234 80.5625V84H85.7031ZM70.3125 80.6797C73.6979 80.6797 76.6797 79.8984 79.2578 78.3359C81.8359 76.7734 83.6979 74.7552 84.8438 72.2812V63.8047H75.4297C71.1849 63.8047 67.7865 64.6901 65.2344 66.4609C62.7083 68.2057 61.4453 70.4193 61.4453 73.1016C61.4453 75.3672 62.2266 77.2031 63.7891 78.6094C65.3776 79.9896 67.5521 80.6797 70.3125 80.6797ZM110.781 41.7344L111.367 48.7656V49.2734C112.565 46.6693 114.193 44.638 116.25 43.1797C118.333 41.6953 120.794 40.9531 123.633 40.9531C124.232 40.9531 124.805 41.0052 125.352 41.1094C125.924 41.1875 126.393 41.2786 126.758 41.3828L126.133 45.7578L122.656 45.5234C119.714 45.5234 117.292 46.3568 115.391 48.0234C113.516 49.6641 112.174 51.9297 111.367 54.8203V80.0547L117.734 80.5625V84H100.352V80.5625L106.719 80.0547V45.7188L100.352 45.2109V41.7344H106.719H110.781ZM161.445 77.9062C160.039 80.1198 158.229 81.8255 156.016 83.0234C153.802 84.2214 151.198 84.8203 148.203 84.8203C143.151 84.8203 139.193 82.9323 136.328 79.1562C133.49 75.3802 132.07 70.3411 132.07 64.0391V63.2188C132.07 56.474 133.49 51.0833 136.328 47.0469C139.193 42.9844 143.177 40.9531 148.281 40.9531C151.224 40.9531 153.776 41.5781 155.938 42.8281C158.099 44.0521 159.896 45.8099 161.328 48.1016V27.0469L154.961 26.5391V23.0625H161.328H166.016V80.0547L172.383 80.5625V84H161.836L161.445 77.9062ZM136.797 64.0391C136.797 69.1432 137.812 73.2057 139.844 76.2266C141.901 79.2474 144.987 80.7578 149.102 80.7578C152.096 80.7578 154.596 80.0807 156.602 78.7266C158.633 77.3724 160.208 75.5104 161.328 73.1406V53.1406C160.286 50.7448 158.776 48.7917 156.797 47.2812C154.844 45.7708 152.305 45.0156 149.18 45.0156C145.065 45.0156 141.966 46.7083 139.883 50.0938C137.826 53.4531 136.797 57.8281 136.797 63.2188V64.0391ZM208.75 84C208.438 82.5677 208.216 81.3307 208.086 80.2891C207.956 79.2474 207.891 78.1927 207.891 77.125C206.328 79.3385 204.245 81.1745 201.641 82.6328C199.036 84.0911 196.107 84.8203 192.852 84.8203C188.711 84.8203 185.508 83.7526 183.242 81.6172C180.977 79.4818 179.844 76.5911 179.844 72.9453C179.844 69.0391 181.523 65.9401 184.883 63.6484C188.242 61.3568 192.799 60.2109 198.555 60.2109H207.891V54.625C207.891 51.6042 206.914 49.2344 204.961 47.5156C203.034 45.7969 200.326 44.9375 196.836 44.9375C194.492 44.9375 192.344 45.263 190.391 45.9141C188.464 46.5391 186.849 47.3984 185.547 48.4922L185.156 54.1562H181.289L181.328 46.0312C183.281 44.5208 185.612 43.2969 188.32 42.3594C191.055 41.4219 193.958 40.9531 197.031 40.9531C201.693 40.9531 205.443 42.138 208.281 44.5078C211.12 46.8776 212.539 50.276 212.539 54.7031V75.4844C212.539 76.3438 212.552 77.1771 212.578 77.9844C212.63 78.7656 212.721 79.5339 212.852 80.2891L217.07 80.5625V84H208.75ZM193.359 80.6797C196.745 80.6797 199.727 79.8984 202.305 78.3359C204.883 76.7734 206.745 74.7552 207.891 72.2812V63.8047H198.477C194.232 63.8047 190.833 64.6901 188.281 66.4609C185.755 68.2057 184.492 70.4193 184.492 73.1016C184.492 75.3672 185.273 77.2031 186.836 78.6094C188.424 79.9896 190.599 80.6797 193.359 80.6797ZM201.289 25.6016H207.031L207.148 25.8359L197.422 35.9922H193.242L201.289 25.6016ZM222.461 45.2109V41.7344H232.734L233.32 48.2969C234.753 45.9531 236.576 44.1432 238.789 42.8672C241.029 41.5911 243.646 40.9531 246.641 40.9531C251.719 40.9531 255.69 42.9844 258.555 47.0469C261.419 51.0833 262.852 56.474 262.852 63.2188V64.0391C262.852 70.3672 261.419 75.4193 258.555 79.1953C255.69 82.9453 251.745 84.8203 246.719 84.8203C243.75 84.8203 241.146 84.2604 238.906 83.1406C236.693 81.9948 234.883 80.3802 233.477 78.2969V96.2656L239.844 96.7734V100.25H222.461V96.7734L228.828 96.2656V45.7188L222.461 45.2109ZM258.164 63.2188C258.164 57.8542 257.096 53.4792 254.961 50.0938C252.826 46.7083 249.701 45.0156 245.586 45.0156C242.435 45.0156 239.87 45.7708 237.891 47.2812C235.938 48.7656 234.466 50.7057 233.477 53.1016V73.4141C234.544 75.7318 236.081 77.5547 238.086 78.8828C240.117 80.2109 242.643 80.875 245.664 80.875C249.753 80.875 252.852 79.3385 254.961 76.2656C257.096 73.1927 258.164 69.1172 258.164 64.0391V63.2188ZM270.195 80.5625L276.562 80.0547V45.7188L270.195 45.2109V41.7344H281.211V80.0547L287.578 80.5625V84H270.195V80.5625ZM281.211 29.625H276.562V23.0625H281.211V29.625ZM295.43 62.2422C295.43 56.0182 297.135 50.9141 300.547 46.9297C303.958 42.9453 308.477 40.9531 314.102 40.9531C319.753 40.9531 324.284 42.9453 327.695 46.9297C331.107 50.9141 332.812 56.0182 332.812 62.2422V63.5312C332.812 69.7812 331.107 74.8984 327.695 78.8828C324.31 82.8411 319.805 84.8203 314.18 84.8203C308.503 84.8203 303.958 82.8411 300.547 78.8828C297.135 74.8984 295.43 69.7812 295.43 63.5312V62.2422ZM300.117 63.5312C300.117 68.4271 301.354 72.5417 303.828 75.875C306.302 79.2083 309.753 80.875 314.18 80.875C318.529 80.875 321.94 79.2083 324.414 75.875C326.888 72.5417 328.125 68.4271 328.125 63.5312V62.2422C328.125 57.4245 326.875 53.3359 324.375 49.9766C321.901 46.6172 318.477 44.9375 314.102 44.9375C309.727 44.9375 306.302 46.6172 303.828 49.9766C301.354 53.3359 300.117 57.4245 300.117 62.2422V63.5312Z" fill="#545454"/>
</svg>
