<svg width="337" height="186" viewBox="0 0 337 186" fill="none" xmlns="http://www.w3.org/2000/svg">
<path d="M70.375 111.125C77.3281 111.125 83.0573 113.352 87.5625 117.805C92.0677 122.232 94.3203 127.922 94.3203 134.875V144.289C94.3203 151.268 92.0677 156.971 87.5625 161.398C83.0573 165.799 77.3281 168 70.375 168H44.7891V161.164L50.8438 159.992V119.172L44.7891 118V111.125H50.8438H70.375ZM62.25 119.914V159.25H69.7891C73.8776 159.25 77.0807 157.87 79.3984 155.109C81.7161 152.349 82.875 148.742 82.875 144.289V134.797C82.875 130.396 81.7161 126.815 79.3984 124.055C77.0807 121.294 73.8776 119.914 69.7891 119.914H62.25ZM99.8672 161.164L105.375 159.992V133.781L99.2812 132.609V125.734H116.781V159.992L122.25 161.164V168H99.8672V161.164ZM116.781 115.617H105.375V107.062H116.781V115.617ZM126.703 147.219C126.703 140.552 128.148 135.174 131.039 131.086C133.956 126.997 138.031 124.953 143.266 124.953C145.635 124.953 147.719 125.487 149.516 126.555C151.312 127.596 152.849 129.094 154.125 131.047L154.945 125.734H164.867V166.75C164.867 172.323 163.109 176.763 159.594 180.07C156.104 183.404 151.299 185.07 145.18 185.07C143.044 185.07 140.779 184.771 138.383 184.172C135.987 183.599 133.773 182.805 131.742 181.789L133.852 173.781C135.674 174.562 137.497 175.174 139.32 175.617C141.143 176.086 143.07 176.32 145.102 176.32C147.888 176.32 149.971 175.474 151.352 173.781C152.732 172.089 153.422 169.732 153.422 166.711V163.938C152.172 165.526 150.701 166.737 149.008 167.57C147.315 168.404 145.375 168.82 143.188 168.82C138.005 168.82 133.956 166.919 131.039 163.117C128.148 159.289 126.703 154.263 126.703 148.039V147.219ZM138.109 148.039C138.109 151.737 138.734 154.654 139.984 156.789C141.234 158.898 143.266 159.953 146.078 159.953C147.823 159.953 149.294 159.641 150.492 159.016C151.716 158.365 152.693 157.427 153.422 156.203V137.844C152.693 136.568 151.716 135.578 150.492 134.875C149.294 134.172 147.849 133.82 146.156 133.82C143.37 133.82 141.326 135.057 140.023 137.531C138.747 140.005 138.109 143.234 138.109 147.219V148.039ZM171.352 161.164L176.859 159.992V133.781L170.766 132.609V125.734H188.266V159.992L193.734 161.164V168H171.352V161.164ZM188.266 115.617H176.859V107.062H188.266V115.617ZM214.32 115.383V125.734H221.742V133.742H214.32V155.266C214.32 156.906 214.659 158.078 215.336 158.781C216.013 159.484 216.924 159.836 218.07 159.836C218.852 159.836 219.529 159.81 220.102 159.758C220.701 159.68 221.365 159.562 222.094 159.406L223.07 167.648C221.794 168.039 220.531 168.326 219.281 168.508C218.031 168.716 216.677 168.82 215.219 168.82C211.286 168.82 208.253 167.74 206.117 165.578C204.008 163.417 202.953 159.992 202.953 155.305V133.742H196.742V125.734H202.953V115.383H214.32ZM254.242 168C253.93 167.297 253.656 166.581 253.422 165.852C253.188 165.096 253.005 164.341 252.875 163.586C251.521 165.148 249.867 166.411 247.914 167.375C245.987 168.339 243.773 168.82 241.273 168.82C237.133 168.82 233.839 167.701 231.391 165.461C228.969 163.195 227.758 160.122 227.758 156.242C227.758 152.284 229.346 149.224 232.523 147.062C235.701 144.901 240.362 143.82 246.508 143.82H252.328V139.68C252.328 137.648 251.742 136.073 250.57 134.953C249.398 133.833 247.667 133.273 245.375 133.273C244.073 133.273 242.914 133.43 241.898 133.742C240.883 134.029 240.062 134.38 239.438 134.797L238.695 139.328H230.102L230.141 129.953C232.224 128.547 234.607 127.362 237.289 126.398C239.997 125.435 242.94 124.953 246.117 124.953C251.352 124.953 255.596 126.242 258.852 128.82C262.133 131.372 263.773 135.018 263.773 139.758V157.219C263.773 157.87 263.773 158.482 263.773 159.055C263.799 159.628 263.852 160.174 263.93 160.695L267.406 161.164V168H254.242ZM244.359 160.383C246.078 160.383 247.641 160.018 249.047 159.289C250.453 158.534 251.547 157.596 252.328 156.477V150.031H246.508C244.086 150.031 242.25 150.604 241 151.75C239.75 152.87 239.125 154.224 239.125 155.812C239.125 157.245 239.581 158.365 240.492 159.172C241.43 159.979 242.719 160.383 244.359 160.383ZM270.102 113.938V107.062H287.602V159.992L293.109 161.164V168H270.688V161.164L276.195 159.992V115.109L270.102 113.938Z" fill="#545454"/>
<path d="M48.0469 44.9375H44.4141L43.75 36.3047C42.2396 34.5078 40.2734 33.0625 37.8516 31.9688C35.4297 30.849 32.6302 30.2891 29.4531 30.2891C23.099 30.2891 18.0469 32.6068 14.2969 37.2422C10.5469 41.8516 8.67188 47.8151 8.67188 55.1328V55.9531C8.67188 63.2708 10.5208 69.2604 14.2188 73.9219C17.9427 78.5573 22.8255 80.875 28.8672 80.875C32.0703 80.875 34.974 80.3151 37.5781 79.1953C40.2083 78.0755 42.2656 76.6302 43.75 74.8594L44.4141 66.2266H48.0469V76.2266C46.276 78.6745 43.6849 80.7188 40.2734 82.3594C36.888 84 33.0859 84.8203 28.8672 84.8203C21.5755 84.8203 15.612 82.125 10.9766 76.7344C6.34115 71.3177 4.02344 64.3906 4.02344 55.9531V55.2109C4.02344 46.7474 6.32812 39.8203 10.9375 34.4297C15.5729 29.013 21.6276 26.3047 29.1016 26.3047C33.3203 26.3047 37.0833 27.138 40.3906 28.8047C43.724 30.4453 46.276 32.4896 48.0469 34.9375V44.9375ZM85.7031 84C85.3906 82.5677 85.1693 81.3307 85.0391 80.2891C84.9089 79.2474 84.8438 78.1927 84.8438 77.125C83.2812 79.3385 81.1979 81.1745 78.5938 82.6328C75.9896 84.0911 73.0599 84.8203 69.8047 84.8203C65.6641 84.8203 62.4609 83.7526 60.1953 81.6172C57.9297 79.4818 56.7969 76.5911 56.7969 72.9453C56.7969 69.0391 58.4766 65.9401 61.8359 63.6484C65.1953 61.3568 69.7526 60.2109 75.5078 60.2109H84.8438V54.625C84.8438 51.6042 83.8672 49.2344 81.9141 47.5156C79.987 45.7969 77.2786 44.9375 73.7891 44.9375C71.4453 44.9375 69.2969 45.263 67.3438 45.9141C65.4167 46.5391 63.8021 47.3984 62.5 48.4922L62.1094 54.1562H58.2422L58.2812 46.0312C60.2344 44.5208 62.5651 43.2969 65.2734 42.3594C68.0078 41.4219 70.9115 40.9531 73.9844 40.9531C78.6458 40.9531 82.3958 42.138 85.2344 44.5078C88.0729 46.8776 89.4922 50.276 89.4922 54.7031V75.4844C89.4922 76.3438 89.5052 77.1771 89.5312 77.9844C89.5833 78.7656 89.6745 79.5339 89.8047 80.2891L94.0234 80.5625V84H85.7031ZM70.3125 80.6797C73.6979 80.6797 76.6797 79.8984 79.2578 78.3359C81.8359 76.7734 83.6979 74.7552 84.8438 72.2812V63.8047H75.4297C71.1849 63.8047 67.7865 64.6901 65.2344 66.4609C62.7083 68.2057 61.4453 70.4193 61.4453 73.1016C61.4453 75.3672 62.2266 77.2031 63.7891 78.6094C65.3776 79.9896 67.5521 80.6797 70.3125 80.6797ZM110.781 41.7344L111.367 48.7656V49.2734C112.565 46.6693 114.193 44.638 116.25 43.1797C118.333 41.6953 120.794 40.9531 123.633 40.9531C124.232 40.9531 124.805 41.0052 125.352 41.1094C125.924 41.1875 126.393 41.2786 126.758 41.3828L126.133 45.7578L122.656 45.5234C119.714 45.5234 117.292 46.3568 115.391 48.0234C113.516 49.6641 112.174 51.9297 111.367 54.8203V80.0547L117.734 80.5625V84H100.352V80.5625L106.719 80.0547V45.7188L100.352 45.2109V41.7344H106.719H110.781ZM161.445 77.9062C160.039 80.1198 158.229 81.8255 156.016 83.0234C153.802 84.2214 151.198 84.8203 148.203 84.8203C143.151 84.8203 139.193 82.9323 136.328 79.1562C133.49 75.3802 132.07 70.3411 132.07 64.0391V63.2188C132.07 56.474 133.49 51.0833 136.328 47.0469C139.193 42.9844 143.177 40.9531 148.281 40.9531C151.224 40.9531 153.776 41.5781 155.938 42.8281C158.099 44.0521 159.896 45.8099 161.328 48.1016V27.0469L154.961 26.5391V23.0625H161.328H166.016V80.0547L172.383 80.5625V84H161.836L161.445 77.9062ZM136.797 64.0391C136.797 69.1432 137.812 73.2057 139.844 76.2266C141.901 79.2474 144.987 80.7578 149.102 80.7578C152.096 80.7578 154.596 80.0807 156.602 78.7266C158.633 77.3724 160.208 75.5104 161.328 73.1406V53.1406C160.286 50.7448 158.776 48.7917 156.797 47.2812C154.844 45.7708 152.305 45.0156 149.18 45.0156C145.065 45.0156 141.966 46.7083 139.883 50.0938C137.826 53.4531 136.797 57.8281 136.797 63.2188V64.0391ZM208.75 84C208.438 82.5677 208.216 81.3307 208.086 80.2891C207.956 79.2474 207.891 78.1927 207.891 77.125C206.328 79.3385 204.245 81.1745 201.641 82.6328C199.036 84.0911 196.107 84.8203 192.852 84.8203C188.711 84.8203 185.508 83.7526 183.242 81.6172C180.977 79.4818 179.844 76.5911 179.844 72.9453C179.844 69.0391 181.523 65.9401 184.883 63.6484C188.242 61.3568 192.799 60.2109 198.555 60.2109H207.891V54.625C207.891 51.6042 206.914 49.2344 204.961 47.5156C203.034 45.7969 200.326 44.9375 196.836 44.9375C194.492 44.9375 192.344 45.263 190.391 45.9141C188.464 46.5391 186.849 47.3984 185.547 48.4922L185.156 54.1562H181.289L181.328 46.0312C183.281 44.5208 185.612 43.2969 188.32 42.3594C191.055 41.4219 193.958 40.9531 197.031 40.9531C201.693 40.9531 205.443 42.138 208.281 44.5078C211.12 46.8776 212.539 50.276 212.539 54.7031V75.4844C212.539 76.3438 212.552 77.1771 212.578 77.9844C212.63 78.7656 212.721 79.5339 212.852 80.2891L217.07 80.5625V84H208.75ZM193.359 80.6797C196.745 80.6797 199.727 79.8984 202.305 78.3359C204.883 76.7734 206.745 74.7552 207.891 72.2812V63.8047H198.477C194.232 63.8047 190.833 64.6901 188.281 66.4609C185.755 68.2057 184.492 70.4193 184.492 73.1016C184.492 75.3672 185.273 77.2031 186.836 78.6094C188.424 79.9896 190.599 80.6797 193.359 80.6797ZM201.289 25.6016H207.031L207.148 25.8359L197.422 35.9922H193.242L201.289 25.6016ZM222.461 45.2109V41.7344H232.734L233.32 48.2969C234.753 45.9531 236.576 44.1432 238.789 42.8672C241.029 41.5911 243.646 40.9531 246.641 40.9531C251.719 40.9531 255.69 42.9844 258.555 47.0469C261.419 51.0833 262.852 56.474 262.852 63.2188V64.0391C262.852 70.3672 261.419 75.4193 258.555 79.1953C255.69 82.9453 251.745 84.8203 246.719 84.8203C243.75 84.8203 241.146 84.2604 238.906 83.1406C236.693 81.9948 234.883 80.3802 233.477 78.2969V96.2656L239.844 96.7734V100.25H222.461V96.7734L228.828 96.2656V45.7188L222.461 45.2109ZM258.164 63.2188C258.164 57.8542 257.096 53.4792 254.961 50.0938C252.826 46.7083 249.701 45.0156 245.586 45.0156C242.435 45.0156 239.87 45.7708 237.891 47.2812C235.938 48.7656 234.466 50.7057 233.477 53.1016V73.4141C234.544 75.7318 236.081 77.5547 238.086 78.8828C240.117 80.2109 242.643 80.875 245.664 80.875C249.753 80.875 252.852 79.3385 254.961 76.2656C257.096 73.1927 258.164 69.1172 258.164 64.0391V63.2188ZM270.195 80.5625L276.562 80.0547V45.7188L270.195 45.2109V41.7344H281.211V80.0547L287.578 80.5625V84H270.195V80.5625ZM281.211 29.625H276.562V23.0625H281.211V29.625ZM295.43 62.2422C295.43 56.0182 297.135 50.9141 300.547 46.9297C303.958 42.9453 308.477 40.9531 314.102 40.9531C319.753 40.9531 324.284 42.9453 327.695 46.9297C331.107 50.9141 332.812 56.0182 332.812 62.2422V63.5312C332.812 69.7812 331.107 74.8984 327.695 78.8828C324.31 82.8411 319.805 84.8203 314.18 84.8203C308.503 84.8203 303.958 82.8411 300.547 78.8828C297.135 74.8984 295.43 69.7812 295.43 63.5312V62.2422ZM300.117 63.5312C300.117 68.4271 301.354 72.5417 303.828 75.875C306.302 79.2083 309.753 80.875 314.18 80.875C318.529 80.875 321.94 79.2083 324.414 75.875C326.888 72.5417 328.125 68.4271 328.125 63.5312V62.2422C328.125 57.4245 326.875 53.3359 324.375 49.9766C321.901 46.6172 318.477 44.9375 314.102 44.9375C309.727 44.9375 306.302 46.6172 303.828 49.9766C301.354 53.3359 300.117 57.4245 300.117 62.2422V63.5312Z" fill="#545454"/>
</svg>
