<svg width="161" height="161" viewBox="0 0 161 161" fill="none" xmlns="http://www.w3.org/2000/svg">
<g clip-path="url(#clip0)">
<path d="M141.022 70.6244L160.85 140.706C161.353 142.487 160.558 144.056 158.837 144.57L108.902 159.578C108.092 159.799 107.216 159.799 106.371 159.578L58.9559 145.998L4.73856 160.816C1.61915 161.661 -0.670098 159.492 0.180193 156.494L22.0312 79.2632C22.333 78.1966 23.5355 77.2809 25.0298 76.984L64.586 69.115C65.1696 69.0094 65.7734 69.0094 66.3419 69.115L100.6 76.1689L136.448 68.5264C138.33 68.1289 140.614 69.1804 141.022 70.6244Z" fill="#DAE5EF"/>
<path d="M59.6553 137.928L10.1824 151.03L27.9329 80.9789L65.1092 73.4219L59.6553 137.928Z" fill="#3E4347"/>
<path d="M151.965 137.928L106.919 151.03L101.008 80.9789L135.628 73.4219L151.965 137.928Z" fill="#3E4347"/>
<path d="M59.6553 137.928L106.919 151.03L101.008 80.9789L65.1092 73.4219L59.6553 137.928Z" fill="#5A5F63"/>
<path d="M38.4785 115.292L41.281 142.793L59.6553 137.928L62.2313 107.438L38.4785 115.292Z" fill="#9A795F"/>
<path d="M43.6658 110.739L62.4728 104.586L63.2577 95.323L43.6658 110.739Z" fill="#9A795F"/>
<path d="M49.9851 102.367L24.5468 94.342L18.2929 119.036L35.9427 113.265L49.9851 102.367Z" fill="#9A795F"/>
<path d="M63.5495 91.8465L65.1092 73.4219L27.9329 80.9789L25.1858 91.8214L52.5762 100.36L63.5495 91.8465Z" fill="#E9B02C"/>
<path d="M17.4778 122.241L10.1824 151.03L37.5729 143.775L35.1579 116.394L17.4778 122.241Z" fill="#7FB239"/>
<path d="M134.491 114.019L143.281 103.645L138.043 82.9712L123.538 95.801L134.491 114.019Z" fill="#9A795F"/>
<path d="M147.864 121.733L144.277 107.584L136.901 116.475L147.864 121.733Z" fill="#9A795F"/>
<path d="M108.253 109.31L131.392 114.674L121.405 97.6829L108.253 109.31Z" fill="#F4C534"/>
<path d="M104.575 108.46L118.713 96.1684L102.054 93.4062L103.297 108.163L104.575 108.46Z" fill="#F4C534"/>
<path d="M105.767 111.509L103.735 113.31L106.919 151.03L151.965 137.928L148.77 125.305L133.983 118.125L105.767 111.509Z" fill="#7FB239"/>
<path d="M121.027 94.1559L137.293 80.0079L135.628 73.4219L101.003 80.9789L101.853 91.0063L121.027 94.1559Z" fill="#F4C534"/>
<path d="M101.853 91.0063L101.003 80.9789L85.6068 77.7388L74.4574 86.5083L101.853 91.0063Z" fill="#8CC63E"/>
<path d="M82.5628 77.0947L65.1092 73.4219L63.5495 91.8465L82.5628 77.0947Z" fill="#8CC63E"/>
<path d="M63.2577 95.3232L62.4728 104.586L72.4952 101.31C72.8222 101.2 73.1845 101.185 73.5216 101.26L103.297 108.163L102.054 93.4063L72.0222 88.4253L63.2577 95.3232Z" fill="#8CC63E"/>
<path d="M80.7516 133.626L79.1818 143.342L106.919 151.03L103.735 113.31L80.7516 133.626Z" fill="#A5856D"/>
<path d="M85.1037 106.664L81.5868 128.449L102.069 110.639L85.1037 106.664Z" fill="#E9B02C"/>
<path d="M73.0838 103.846L62.2313 107.439L59.6553 137.928L75.6247 142.356L81.9893 105.934L73.0838 103.846Z" fill="#8CC63E"/>
<path d="M120.821 0C101.586 0 85.9841 15.6021 85.9841 34.8368C85.9841 50.137 107.931 79.8167 116.982 91.4139C118.939 93.9194 122.703 93.9194 124.655 91.4139C133.711 79.8167 155.658 50.137 155.658 34.8368C155.658 15.6021 140.061 0 120.821 0ZM120.821 48.5974C113.224 48.5974 107.065 42.4341 107.065 34.877C107.065 27.2798 113.229 21.0812 120.821 21.0812C128.418 21.0812 134.582 27.2798 134.582 34.877C134.582 42.4341 128.418 48.5974 120.821 48.5974Z" fill="#E24B4B"/>
<path d="M120.821 0C101.586 0 85.9841 15.6021 85.9841 34.8368C85.9841 54.1117 120.821 96.2188 120.821 96.2188C120.821 96.2188 155.658 54.1117 155.658 34.8368C155.658 15.6021 140.061 0 120.821 0ZM120.821 48.5974C113.224 48.5974 107.065 42.4341 107.065 34.877C107.065 27.2798 113.229 21.0812 120.821 21.0812C128.418 21.0812 134.582 27.2798 134.582 34.877C134.582 42.4341 128.418 48.5974 120.821 48.5974Z" fill="#E24B4B"/>
<path d="M138.677 34.872C138.677 25.0107 130.677 17.0059 120.811 17.0059C110.949 17.0059 102.99 25.0107 102.99 34.872C102.99 44.6932 110.949 52.6929 120.811 52.6929C130.677 52.6929 138.677 44.6932 138.677 34.872ZM120.826 44.4064C115.543 44.4064 111.256 40.1197 111.256 34.862C111.256 29.5791 115.543 25.2673 120.826 25.2673C126.109 25.2673 130.396 29.5791 130.396 34.862C130.396 40.1247 126.109 44.4064 120.826 44.4064Z" fill="#3E4347"/>
<path d="M139.774 5.63501C142.144 11.3506 143.406 17.4787 143.406 23.9339C143.406 47.0075 126.949 66.5742 103.996 73.6784C112.534 86.1762 120.821 96.2237 120.821 96.2237C120.821 96.2237 155.658 54.1167 155.658 34.8418C155.658 22.5855 149.328 11.8034 139.774 5.63501Z" fill="#D03F3F"/>
<g opacity="0.1">
<path opacity="0.1" d="M122.758 10.2488C121.958 12.3016 115.392 12.0249 109.656 15.3455C103.709 18.2687 100.268 23.8988 98.1297 23.4208C95.8556 23.2397 96.5499 13.2575 105.888 8.2212C115.261 3.24524 123.885 8.25139 122.758 10.2488Z" fill="white"/>
</g>
<path opacity="0.15" d="M120.821 44.3963C115.553 44.3963 111.266 40.1096 111.266 34.8821C111.266 29.574 115.553 25.2823 120.821 25.2823C125.158 25.2823 128.785 28.2055 129.953 32.1903C132.453 26.032 133.857 19.3102 133.857 12.2512C133.857 8.80479 133.5 5.44891 132.876 2.18359C129.113 0.794947 125.067 0 120.821 0C101.586 0 85.9841 15.6021 85.9841 34.8368C85.9841 42.0768 90.8997 52.542 97.0379 62.7807C107.604 59.3795 116.685 52.7432 123.206 44.0541C122.441 44.2554 121.651 44.3963 120.821 44.3963Z" fill="white"/>
<path d="M42.4583 45.4326C33.9403 45.4326 27.0323 52.3406 27.0323 60.8586C27.0323 67.6308 36.7477 80.7725 40.7577 85.9095C41.6231 87.0164 43.2884 87.0164 44.1538 85.9095C48.1638 80.7776 57.8792 67.6358 57.8792 60.8586C57.8843 52.3356 50.9763 45.4326 42.4583 45.4326ZM42.4583 66.9465C39.0974 66.9465 36.3654 64.2195 36.3654 60.8687C36.3654 57.5078 39.0923 54.7607 42.4583 54.7607C45.8242 54.7607 48.5512 57.5078 48.5512 60.8687C48.5512 64.2145 45.8242 66.9465 42.4583 66.9465Z" fill="#E24B4B"/>
<path d="M42.4583 45.4326C33.9403 45.4326 27.0323 52.3406 27.0323 60.8586C27.0323 69.3917 42.4583 88.0377 42.4583 88.0377C42.4583 88.0377 57.8792 69.3967 57.8792 60.8586C57.8843 52.3356 50.9763 45.4326 42.4583 45.4326ZM42.4583 66.9465C39.0974 66.9465 36.3654 64.2195 36.3654 60.8687C36.3654 57.5078 39.0923 54.7607 42.4583 54.7607C45.8242 54.7607 48.5512 57.5078 48.5512 60.8687C48.5512 64.2145 45.8242 66.9465 42.4583 66.9465Z" fill="#E24B4B"/>
<path d="M50.3675 60.8687C50.3675 56.5015 46.8254 52.9595 42.4583 52.9595C38.0911 52.9595 34.5692 56.5015 34.5692 60.8687C34.5692 65.2157 38.0911 68.7578 42.4583 68.7578C46.8254 68.7578 50.3675 65.2157 50.3675 60.8687ZM42.4633 65.09C40.1237 65.09 38.2269 63.1932 38.2269 60.8637C38.2269 58.5241 40.1237 56.6172 42.4633 56.6172C44.8029 56.6172 46.6997 58.5241 46.6997 60.8637C46.6997 63.1932 44.8029 65.09 42.4633 65.09Z" fill="#3E4347"/>
<path d="M50.8505 47.9233C51.897 50.4541 52.4605 53.166 52.4605 56.0238C52.4605 66.2423 45.1752 74.9012 35.0119 78.0458C38.7904 83.5802 42.4633 88.0279 42.4633 88.0279C42.4633 88.0279 57.8843 69.3869 57.8843 60.8488C57.8843 55.4301 55.0818 50.6553 50.8505 47.9233Z" fill="#D03F3F"/>
<g opacity="0.1">
<path opacity="0.1" d="M43.3186 49.9659C42.9614 50.8715 40.0583 50.7508 37.5175 52.2199C34.8861 53.513 33.3617 56.0085 32.4158 55.7922C31.4095 55.7117 31.7164 51.2942 35.8522 49.0653C39.998 46.8666 43.8167 49.0854 43.3186 49.9659Z" fill="white"/>
</g>
<path opacity="0.15" d="M42.4583 65.0849C40.1238 65.0849 38.227 63.1881 38.227 60.8737C38.227 58.5241 40.1238 56.6222 42.4583 56.6222C44.3752 56.6222 45.9852 57.9153 46.4984 59.6813C47.6053 56.9543 48.2292 53.9808 48.2292 50.8564C48.2292 49.3319 48.0732 47.8426 47.7915 46.3986C46.1311 45.7848 44.34 45.4326 42.4583 45.4326C33.9403 45.4326 27.0323 52.3406 27.0323 60.8586C27.0323 64.0636 29.2108 68.6974 31.9278 73.2306C36.6069 71.7262 40.6269 68.788 43.5149 64.939C43.1778 65.0245 42.8256 65.0849 42.4583 65.0849Z" fill="white"/>
<path d="M70.8248 93.4214C62.3068 93.4214 55.3988 100.329 55.3988 108.847C55.3988 115.62 65.1143 128.761 69.1242 133.898C69.9896 135.005 71.655 135.005 72.5204 133.898C76.5303 128.766 86.2458 115.625 86.2458 108.847C86.2458 100.329 79.3378 93.4214 70.8248 93.4214ZM70.8248 114.935C67.4639 114.935 64.7319 112.208 64.7319 108.857C64.7319 105.497 67.4589 102.749 70.8248 102.749C74.1908 102.749 76.9177 105.497 76.9177 108.857C76.9127 112.208 74.1857 114.935 70.8248 114.935Z" fill="#E24B4B"/>
<path d="M70.8248 93.4214C62.3068 93.4214 55.3988 100.329 55.3988 108.847C55.3988 117.38 70.8248 136.026 70.8248 136.026C70.8248 136.026 86.2458 117.386 86.2458 108.847C86.2458 100.329 79.3378 93.4214 70.8248 93.4214ZM70.8248 114.935C67.4639 114.935 64.7319 112.208 64.7319 108.857C64.7319 105.497 67.4589 102.749 70.8248 102.749C74.1908 102.749 76.9177 105.497 76.9177 108.857C76.9127 112.208 74.1857 114.935 70.8248 114.935Z" fill="#E24B4B"/>
<path d="M78.729 108.862C78.729 104.495 75.1869 100.953 70.8198 100.953C66.4526 100.953 62.9307 104.495 62.9307 108.862C62.9307 113.209 66.4526 116.751 70.8198 116.751C75.1869 116.751 78.729 113.209 78.729 108.862ZM70.8248 113.084C68.4852 113.084 66.5884 111.187 66.5884 108.857C66.5884 106.518 68.4852 104.611 70.8248 104.611C73.1644 104.611 75.0612 106.518 75.0612 108.857C75.0612 111.187 73.1644 113.084 70.8248 113.084Z" fill="#3E4347"/>
<path d="M79.212 95.917C80.2585 98.4477 80.822 101.16 80.822 104.017C80.822 114.231 73.5367 122.895 63.3734 126.039C67.1519 131.574 70.8248 136.022 70.8248 136.022C70.8248 136.022 86.2458 117.381 86.2458 108.842C86.2458 103.419 83.4433 98.649 79.212 95.917Z" fill="#D03F3F"/>
<g opacity="0.1">
<path opacity="0.1" d="M71.6801 97.9597C71.3279 98.8703 68.4198 98.7445 65.879 100.214C63.2477 101.507 61.7232 104.002 60.7773 103.791C59.771 103.71 60.0779 99.2879 64.2137 97.0641C68.3595 94.8604 72.1782 97.0741 71.6801 97.9597Z" fill="white"/>
</g>
<path opacity="0.15" d="M70.8248 113.074C68.4903 113.074 66.5935 111.177 66.5935 108.862C66.5935 106.513 68.4903 104.616 70.8248 104.616C72.7468 104.616 74.3517 105.909 74.8649 107.675C75.9718 104.948 76.5957 101.974 76.5957 98.85C76.5957 97.3255 76.4397 95.8363 76.163 94.3923C74.4977 93.7785 72.7065 93.4263 70.8248 93.4263C62.3068 93.4263 55.3988 100.334 55.3988 108.852C55.3988 112.057 57.5774 116.691 60.2943 121.224C64.9734 119.72 68.9934 116.782 71.8814 112.933C71.5392 113.013 71.1921 113.074 70.8248 113.074Z" fill="white"/>
</g>
<defs>
<clipPath id="clip0">
<rect width="161" height="161" fill="white"/>
</clipPath>
</defs>
</svg>
