<svg width="62" height="62" viewBox="0 0 62 62" fill="none" xmlns="http://www.w3.org/2000/svg">
<path d="M54.4922 51.5859C54.4922 52.2548 53.9501 52.7969 53.2812 52.7969C52.6124 52.7969 52.0703 52.2548 52.0703 51.5859C52.0703 50.9171 52.6124 50.375 53.2812 50.375C53.9501 50.375 54.4922 50.9171 54.4922 51.5859Z" fill="black"/>
<path d="M39.4766 51.5859C39.4766 52.2548 38.9345 52.7969 38.2656 52.7969C37.5968 52.7969 37.0547 52.2548 37.0547 51.5859C37.0547 50.9171 37.5968 50.375 38.2656 50.375C38.9345 50.375 39.4766 50.9171 39.4766 51.5859Z" fill="black"/>
<path d="M24.9453 51.5859C24.9453 52.2548 24.4032 52.7969 23.7344 52.7969C23.0655 52.7969 22.5234 52.2548 22.5234 51.5859C22.5234 50.9171 23.0655 50.375 23.7344 50.375C24.4032 50.375 24.9453 50.9171 24.9453 51.5859Z" fill="black"/>
<path d="M9.92969 51.5859C9.92969 52.2548 9.3876 52.7969 8.71875 52.7969C8.0499 52.7969 7.50781 52.2548 7.50781 51.5859C7.50781 50.9171 8.0499 50.375 8.71875 50.375C9.3876 50.375 9.92969 50.9171 9.92969 51.5859Z" fill="black"/>
<path d="M46.6646 10.1009C44.4949 9.48221 41.8975 9.64587 39.7878 10.6383L37.7174 11.6132C36.6465 9.63026 34.2132 9.27834 32.2109 9.21684V9.20312C32.2109 7.86778 33.2975 6.78125 34.6328 6.78125C35.3017 6.78125 35.8438 6.23917 35.8438 5.57031C35.8438 4.90146 35.3017 4.35938 34.6328 4.35938C31.9621 4.35938 29.7891 6.53244 29.7891 9.20312V9.22252C26.2565 9.3474 23.7344 10.407 23.7344 14.0469C23.7344 15.1973 24.0097 16.5241 24.5045 17.8169L0.707642 28.6874C0.27861 28.8837 0 29.3189 0 29.7891V56.4297C0 57.0985 0.542084 57.6406 1.21094 57.6406H60.7891C61.4579 57.6406 62 57.0985 62 56.4297V29.7891C62 20.7766 55.5787 12.6486 46.6646 10.1009ZM40.819 12.8298C42.3104 12.1278 44.3066 11.9471 46 12.4296C53.5859 14.5979 58.9996 21.1356 59.5341 28.5781H45.5312C44.8624 28.5781 44.3203 29.1202 44.3203 29.7891C44.3203 30.4579 44.8624 31 45.5312 31H59.5781V38.2798C58.9131 38.0793 58.2811 37.7344 57.7906 37.2874C55.1426 34.8726 51.2988 34.8726 48.6508 37.2874C46.921 38.8645 44.5048 38.8645 42.7749 37.2874C40.1137 34.8608 36.5381 34.8608 33.8774 37.2874C32.1395 38.8716 29.9811 38.8716 28.2437 37.2874C25.5825 34.8608 22.0069 34.8608 19.3461 37.2874C17.6163 38.8645 15.2001 38.8645 13.4703 37.2874C10.8223 34.8726 6.9785 34.8726 4.33099 37.2869C3.81398 37.7581 3.13046 38.1157 2.42188 38.3106V31H35.8438C36.5126 31 37.0547 30.4579 37.0547 29.7891C37.0547 29.1202 36.5126 28.5781 35.8438 28.5781H6.77605L25.573 19.9913C27.0252 22.355 28.9991 23.7344 31 23.7344C35.138 23.7344 38.2656 17.9862 38.2656 14.0469C38.2656 14.0421 38.2652 14.0369 38.2652 14.0322L40.819 12.8298ZM2.42188 40.7944C3.72552 40.5659 4.99086 39.9619 5.96245 39.0769C7.69229 37.4993 10.1085 37.4993 11.8383 39.0769C14.4863 41.4916 18.3301 41.4916 20.9781 39.0769C22.7155 37.4922 24.8744 37.4922 26.6118 39.0769C29.2725 41.5035 32.8481 41.5035 35.5093 39.0769C37.2467 37.4922 39.4056 37.4922 41.143 39.0769C43.791 41.4916 47.6348 41.4916 50.2828 39.0769C52.0126 37.4993 54.4288 37.4993 56.1586 39.0769C57.0924 39.9283 58.3147 40.5243 59.5781 40.7708V45.5454C58.9131 45.3449 58.2811 45 57.7906 44.553C55.1426 42.1383 51.2988 42.1383 48.6508 44.553C46.921 46.1301 44.5048 46.1301 42.7749 44.553C40.1137 42.1264 36.5381 42.1264 33.8774 44.553C32.1395 46.1372 29.9811 46.1372 28.2437 44.553C25.5825 42.1264 22.0069 42.1264 19.3461 44.553C17.6163 46.1301 15.2001 46.1301 13.4703 44.553C10.8223 42.1383 6.9785 42.1383 4.33099 44.5526C3.81398 45.0237 3.13046 45.3813 2.42188 45.5762V40.7944ZM31 11.625C34.4701 11.625 35.5926 12.0555 35.804 13.4679V13.4688C36.2061 16.1504 33.666 21.3125 31 21.3125C28.4797 21.3125 26.1562 16.8249 26.1562 14.0469C26.1562 12.2593 26.888 11.625 31 11.625ZM2.42188 55.2188V48.06C3.72552 47.8316 4.99086 47.2275 5.96245 46.3425C7.69229 44.765 10.1085 44.765 11.8383 46.3425C14.4863 48.7573 18.3301 48.7573 20.9781 46.3425C22.7155 44.7579 24.8744 44.7579 26.6118 46.3425C29.2725 48.7691 32.8481 48.7691 35.5093 46.3425C37.2467 44.7579 39.4056 44.7579 41.143 46.3425C43.791 48.7573 47.6348 48.7573 50.2828 46.3425C52.0126 44.765 54.4288 44.765 56.1586 46.3425C57.0924 47.1939 58.3147 47.7899 59.5781 48.0364V55.2188H2.42188Z" fill="black"/>
<path d="M41.8984 29.7891C41.8984 30.4579 41.3564 31 40.6875 31C40.0186 31 39.4766 30.4579 39.4766 29.7891C39.4766 29.1202 40.0186 28.5781 40.6875 28.5781C41.3564 28.5781 41.8984 29.1202 41.8984 29.7891Z" fill="black"/>
</svg>
